# Blender 5.0.1
# www.blender.org
o Straight_Track_Final
v -0.340000 -0.100000 0.990000
v 0.000000 -0.100000 -1.250000
v -0.340000 -0.090000 1.000000
v -0.070000 -0.100000 -0.900000
v -0.350000 -0.090000 0.990000
v 0.000000 0.100000 -1.250000
v -0.340000 0.090000 1.000000
v -0.070000 0.100000 -0.900000
v 0.038268 -0.100000 -1.242388
v -0.340000 0.100000 0.990000
v -0.070000 -0.100000 -1.100000
v -0.350000 0.090000 0.990000
v -0.340000 -0.100000 -0.990000
v 0.038268 0.100000 -1.242388
v -0.350000 -0.090000 -0.990000
v -0.070000 0.100000 -1.100000
v -0.340000 -0.090000 -1.000000
v 0.070000 -0.100000 -0.900000
v -0.340000 0.100000 -0.990000
v 0.070711 -0.100000 -1.220711
v -0.340000 0.090000 -1.000000
v 0.070711 0.100000 -1.220711
v 0.070000 0.100000 -0.900000
v -0.350000 0.090000 -0.990000
v 0.340000 -0.100000 0.990000
v 0.092388 -0.100000 -1.188268
v 0.350000 -0.090000 0.990000
v 0.070000 -0.100000 -1.100000
v 0.340000 -0.090000 1.000000
v 0.092388 0.100000 -1.188268
v 0.070000 0.100000 -1.100000
v 0.340000 0.100000 0.990000
v 0.340000 0.090000 1.000000
v 0.100000 -0.100000 -1.150000
v 0.100000 0.100000 -1.150000
v 0.350000 0.090000 0.990000
v 0.092388 -0.100000 -1.111732
v 0.340000 -0.100000 -0.990000
v 0.092388 0.100000 -1.111732
v 0.340000 -0.090000 -1.000000
v 0.070711 -0.100000 -1.079289
v 0.350000 -0.090000 -0.990000
v 0.070711 0.100000 -1.079289
v 0.340000 0.100000 -0.990000
v 0.038268 -0.100000 -1.057612
v 0.350000 0.090000 -0.990000
v 0.340000 0.090000 -1.000000
v 0.038268 0.100000 -1.057612
v 0.000000 -0.100000 -1.050000
v -0.175000 0.100000 -0.990000
v 0.000000 0.100000 -1.050000
v -0.275000 0.100000 -0.990000
v 0.275000 0.100000 -0.990000
v -0.038268 -0.100000 -1.057612
v -0.038268 0.100000 -1.057612
v 0.175000 0.100000 -0.990000
v -0.275000 0.090000 -1.000000
v -0.070711 -0.100000 -1.079289
v 0.275000 0.090000 -1.000000
v -0.070711 0.100000 -1.079289
v -0.092388 -0.100000 -1.111732
v 0.175000 0.090000 -1.000000
v -0.175000 0.090000 -1.000000
v -0.092388 0.100000 -1.111732
v -0.100000 -0.100000 -1.150000
v -0.275000 0.100000 0.990000
v -0.100000 0.100000 -1.150000
v -0.175000 0.100000 0.990000
v -0.092388 -0.100000 -1.188268
v 0.175000 0.100000 0.990000
v 0.275000 0.100000 0.990000
v -0.092388 0.100000 -1.188268
v -0.070711 -0.100000 -1.220711
v -0.175000 0.090000 1.000000
v -0.275000 0.090000 1.000000
v -0.070711 0.100000 -1.220711
v -0.038268 -0.100000 -1.242388
v 0.175000 0.090000 1.000000
v 0.275000 0.090000 1.000000
v -0.038268 0.100000 -1.242388
v 0.275000 0.000000 1.000000
v 0.070000 0.100000 -1.078814
v 0.175000 0.000000 1.000000
v 0.042139 0.100000 -1.060198
v -0.275000 0.000000 1.000000
v 0.070000 -0.100000 -1.078814
v -0.175000 0.000000 1.000000
v -0.070000 0.100000 -1.078814
v -0.275000 0.000000 -1.000000
v -0.042139 -0.100000 -1.060198
v -0.070000 -0.100000 -1.078814
v -0.175000 0.000000 -1.000000
v 0.070000 0.100000 -1.079289
v 0.175000 0.000000 -1.000000
v -0.045136 -0.100000 -1.064479
v 0.275000 0.000000 -1.000000
v 0.055503 0.100000 -1.079289
v -0.077000 -0.100000 0.990000
v 0.077000 -0.100000 0.990000
v 0.077000 -0.090000 1.000000
v -0.077000 -0.090000 1.000000
v 0.077000 0.090000 1.000000
v -0.077000 0.090000 1.000000
v -0.077000 0.100000 0.990000
v 0.077000 0.100000 0.990000
v -0.110000 -0.100000 0.850000
v -0.101627 -0.100000 0.892095
v -0.101627 -0.100000 0.807905
v -0.077782 -0.100000 0.927782
v -0.042095 -0.100000 0.748373
v -0.077000 -0.100000 0.928304
v -0.077782 -0.100000 0.772218
v 0.042095 -0.100000 0.748373
v 0.077782 -0.100000 0.927782
v 0.077000 -0.100000 0.928304
v 0.110000 -0.100000 0.850000
v 0.101627 -0.100000 0.807905
v 0.101627 -0.100000 0.892095
v 0.077782 -0.100000 0.772218
v 0.000000 -0.100000 0.740000
v -0.110000 0.100000 0.850000
v -0.101627 0.100000 0.892095
v -0.101627 0.100000 0.807905
v -0.042095 0.100000 0.748373
v -0.077782 0.100000 0.927782
v -0.077000 0.100000 0.928304
v -0.077782 0.100000 0.772218
v 0.042095 0.100000 0.748373
v 0.077782 0.100000 0.927782
v 0.077000 0.100000 0.928304
v 0.110000 0.100000 0.850000
v 0.101627 0.100000 0.892095
v 0.101627 0.100000 0.807905
v 0.077782 0.100000 0.772218
v 0.000000 0.100000 0.740000
v 0.070000 -0.100000 -0.990000
v -0.070000 -0.100000 -0.990000
v -0.070000 -0.090000 -1.000000
v 0.070000 -0.090000 -1.000000
v 0.070000 0.090000 -1.000000
v -0.070000 0.090000 -1.000000
v -0.070000 0.100000 -0.990000
v 0.070000 0.100000 -0.990000
v -0.070000 -0.100000 -0.900000
v 0.070000 -0.100000 -0.900000
v -0.070000 0.100000 -0.900000
v 0.070000 0.100000 -0.900000
vn -0.5774 -0.5774 0.5773
vn -0.5774 0.5773 0.5773
vn -0.5774 -0.5774 -0.5774
vn -0.5774 0.5773 -0.5774
vn 0.5774 -0.5774 0.5773
vn 0.5774 0.5773 0.5773
vn 0.5774 -0.5774 -0.5774
vn 0.5774 0.5773 -0.5774
vn -0.7071 -0.7071 -0.0000
vn -0.7071 -0.0000 0.7071
vn -0.7071 0.7071 -0.0000
vn -0.7071 -0.0000 -0.7071
vn -0.0000 -0.7071 -0.7071
vn -0.0000 0.7071 -0.7071
vn 0.7071 -0.0000 -0.7071
vn 0.7071 -0.7071 -0.0000
vn 0.7071 0.7071 -0.0000
vn 0.7071 -0.0000 0.7071
vn -0.0000 -0.7071 0.7071
vn -0.0000 0.7071 0.7071
vn -0.0000 -1.0000 -0.0000
vn -1.0000 -0.0000 -0.0000
vn -0.0000 -0.0000 1.0000
vn -0.0000 1.0000 -0.0000
vn -0.0000 -0.0000 -1.0000
vn 1.0000 -0.0000 -0.0000
vn -0.3827 -0.0000 0.9239
vn -0.9239 -0.0000 0.3827
vn -0.9239 -0.0000 -0.3827
vn -0.5555 -0.0000 -0.8315
vn 0.5555 -0.0000 -0.8315
vn 0.9239 -0.0000 -0.3827
vn 0.9239 -0.0000 0.3827
vn 0.3827 -0.0000 0.9239
vn 0.3827 -0.0000 -0.9239
vn 0.5556 -0.0000 0.8314
vn -0.5556 -0.0000 0.8314
vn -0.3827 -0.0000 -0.9239
vt 0.985628 0.007357
vt 0.979998 0.008182
vt 0.981134 0.002637
vt 0.452100 0.933514
vt 0.451316 0.927718
vt 0.456947 0.928827
vt 0.983712 0.994973
vt 0.979151 0.999557
vt 0.978193 0.993992
vt 0.451512 0.109992
vt 0.452299 0.104195
vt 0.457143 0.108885
vt 0.985626 0.497772
vt 0.981100 0.502491
vt 0.979994 0.496920
vt 0.005875 0.928579
vt 0.005088 0.934449
vt 0.000209 0.929705
vt 0.983879 0.510095
vt 0.978365 0.511051
vt 0.979349 0.505514
vt 0.005846 0.109842
vt 0.000209 0.108732
vt 0.005060 0.104038
vt 0.738858 0.000209
vt 0.744698 0.817835
vt 0.738858 0.817835
vt 0.906151 0.006135
vt 0.904210 0.999791
vt 0.904192 0.993904
vt 0.984104 0.884415
vt 0.984012 0.620659
vt 0.978890 0.622501
vt 0.032441 0.110040
vt 0.424950 0.110184
vt 0.422903 0.105132
vt 0.301329 0.110045
vt 0.258470 0.103424
vt 0.303432 0.105081
vt 0.156210 0.109926
vt 0.199160 0.103297
vt 0.199383 0.109365
vt 0.904270 0.510684
vt 0.904320 0.504743
vt 0.819445 0.000209
vt 0.825285 0.817835
vt 0.819445 0.817835
vt 0.906451 0.504326
vt 0.906307 0.498461
vt 0.978595 0.389381
vt 0.983582 0.387331
vt 0.978294 0.115827
vt 0.422705 0.932563
vt 0.424754 0.927513
vt 0.156281 0.928107
vt 0.196172 0.935020
vt 0.154155 0.933076
vt 0.303260 0.932553
vt 0.261041 0.928460
vt 0.301131 0.927597
vt 0.034571 0.933351
vt 0.615380 0.825006
vt 0.598000 0.821548
vt 0.626924 0.144225
vt 0.819027 0.000209
vt 0.744698 0.000209
vt 0.941777 0.075223
vt 0.942442 0.033998
vt 0.942064 0.429859
vt 0.032500 0.928292
vt 0.257811 0.146891
vt 0.260864 0.837877
vt 0.246125 0.828086
vt 0.941529 0.579159
vt 0.941284 0.537793
vt 0.941585 0.925822
vt 0.978984 0.882563
vt 0.899614 0.000209
vt 0.825285 0.000209
vt 0.115004 0.105562
vt 0.034492 0.104983
vt 0.073642 0.105596
vt 0.115080 0.932568
vt 0.342487 0.105695
vt 0.383601 0.931941
vt 0.383799 0.105737
vt 0.983326 0.252577
vt 0.900098 0.270574
vt 0.900065 0.252684
vt 0.983346 0.270472
vt 0.900140 0.288457
vt 0.983350 0.306246
vt 0.983354 0.288363
vt 0.983332 0.324117
vt 0.900190 0.306330
vt 0.983300 0.341970
vt 0.900249 0.324187
vt 0.983254 0.359802
vt 0.900315 0.342024
vt 0.983055 0.360134
vt 0.900387 0.359836
vt 0.982993 0.145397
vt 0.900167 0.145040
vt 0.982790 0.145075
vt 0.900069 0.163295
vt 0.900107 0.145462
vt 0.983070 0.163215
vt 0.900044 0.181149
vt 0.983140 0.181058
vt 0.900032 0.199020
vt 0.983201 0.198920
vt 0.900032 0.216902
vt 0.983253 0.216797
vt 0.900043 0.234791
vt 0.983294 0.234684
vt 0.983286 0.117883
vt 0.904780 0.389716
vt 0.900642 0.385599
vt 0.900582 0.360145
vt 0.900041 0.752548
vt 0.982955 0.736293
vt 0.982974 0.752495
vt 0.900032 0.736345
vt 0.982928 0.720096
vt 0.900032 0.720144
vt 0.982893 0.703907
vt 0.900042 0.703949
vt 0.982851 0.687730
vt 0.900062 0.687763
vt 0.982801 0.671569
vt 0.900094 0.671589
vt 0.982746 0.655426
vt 0.900188 0.655048
vt 0.982688 0.655058
vt 0.982874 0.849611
vt 0.900326 0.849981
vt 0.900268 0.849613
vt 0.982918 0.833454
vt 0.900213 0.833471
vt 0.982951 0.817281
vt 0.900164 0.817311
vt 0.982972 0.801095
vt 0.900122 0.801135
vt 0.982982 0.784899
vt 0.199488 0.063296
vt 0.199532 0.072078
vt 0.199208 0.072079
vt 0.199568 0.072305
vt 0.205624 0.072057
vt 0.211237 0.080076
vt 0.212876 0.081187
vt 0.900087 0.784946
vt 0.982983 0.768698
vt 0.900060 0.768750
vt 0.626746 0.061802
vt 0.569258 0.061802
vt 0.598002 0.000209
vt 0.580693 0.078164
vt 0.579460 0.076398
vt 0.582265 0.079224
vt 0.597998 0.082356
vt 0.982823 0.849995
vt 0.904378 0.622528
vt 0.199727 0.146805
vt 0.199758 0.146844
vt 0.569131 0.144189
vt 0.569076 0.144226
vt 0.228878 0.084424
vt 0.906330 0.000209
vt 0.258247 0.109479
vt 0.154105 0.104953
vt 0.196453 0.928957
vt 0.261324 0.934512
vt 0.457594 0.924799
vt 0.457560 0.107093
vt 0.565882 0.834854
vt 0.568970 0.107076
vt 0.580620 0.825006
vt 0.556035 0.849593
vt 0.565885 0.899099
vt 0.566209 0.924794
vt 0.556037 0.884362
vt 0.627032 0.107074
vt 0.738440 0.107093
vt 0.738405 0.924799
vt 0.629791 0.924794
vt 0.639963 0.884362
vt 0.630115 0.899099
vt 0.630117 0.834854
vt 0.639964 0.849592
vt 0.552578 0.866977
vt 0.643422 0.866977
vt 0.819027 0.817835
vt 0.905366 0.032912
vt 0.904379 0.115412
vt 0.904645 0.074979
vt 0.942645 0.470964
vt 0.905712 0.471787
vt 0.905007 0.430067
vt 0.186723 0.852912
vt 0.196592 0.838107
vt 0.196608 0.903091
vt 0.186870 0.888045
vt 0.228732 0.824687
vt 0.260877 0.902646
vt 0.260557 0.902869
vt 0.270725 0.852564
vt 0.183367 0.870444
vt 0.270589 0.887626
vt 0.274081 0.870060
vt 0.211339 0.828199
vt 0.904365 0.579170
vt 0.904091 0.537545
vt 0.904461 0.925781
vt 0.904509 0.882469
vt 0.941270 0.967108
vt 0.904184 0.967119
vt 0.899614 0.817835
vt 0.073716 0.932635
vt 0.342290 0.931963
vt 0.900234 0.119535
vt 0.900138 0.655432
vt 0.271155 0.042600
vt 0.267850 0.058718
vt 0.258374 0.063579
vt 0.258538 0.072312
vt 0.258210 0.072508
vt 0.258989 0.012728
vt 0.268042 0.026453
vt 0.229268 0.000209
vt 0.245373 0.003512
vt 0.199407 0.012417
vt 0.213123 0.003343
vt 0.186922 0.042165
vt 0.190206 0.026049
vt 0.190049 0.058320
vt 0.244898 0.081284
vt 0.635936 0.056986
vt 0.627038 0.070296
vt 0.626746 0.070488
vt 0.635939 0.025558
vt 0.639064 0.041272
vt 0.613716 0.003335
vt 0.627038 0.012236
vt 0.582288 0.003335
vt 0.560065 0.025559
vt 0.568966 0.012236
vt 0.560068 0.056987
vt 0.556940 0.041273
vt 0.569262 0.070488
vt 0.568969 0.070296
vt 0.613725 0.079226
vt 0.257834 0.146871
vt 0.900393 0.886600
vt 0.626868 0.144187
vt 0.900259 0.618393
s 0
f 1/1/1 3/2/1 5/3/1
f 7/4/2 10/5/2 12/6/2
f 13/7/3 15/8/3 17/9/3
f 19/10/4 21/11/4 24/12/4
f 25/13/5 27/14/5 29/15/5
f 32/16/6 33/17/6 36/18/6
f 38/19/7 40/20/7 42/21/7
f 44/22/8 46/23/8 47/24/8
f 1/25/9 15/26/9 13/27/9
f 7/28/10 5/3/10 3/2/10
f 19/10/11 12/6/11 10/5/11
f 17/9/12 24/29/12 21/30/12
f 17/9/13 137/31/13 13/7/13
f 40/20/13 136/32/13 139/33/13
f 47/24/14 53/34/14 44/22/14
f 21/11/14 52/35/14 57/36/14
f 50/37/14 141/38/14 63/39/14
f 56/40/14 140/41/14 143/42/14
f 42/21/15 47/43/15 46/44/15
f 38/45/16 27/46/16 25/47/16
f 32/16/17 46/23/17 44/22/17
f 29/15/18 36/48/18 33/49/18
f 25/13/19 100/50/19 99/51/19
f 1/1/19 101/52/19 3/2/19
f 10/5/20 75/53/20 66/54/20
f 70/55/20 102/56/20 78/57/20
f 74/58/20 104/59/20 68/60/20
f 32/16/20 79/61/20 33/17/20
f 113/62/21 120/63/21 145/64/21
f 12/65/22 15/26/22 5/66/22
f 87/67/23 85/68/23 3/2/23
f 29/15/23 83/69/23 100/50/23
f 10/5/24 52/35/24 19/10/24
f 44/22/24 71/70/24 32/16/24
f 146/71/24 127/72/24 124/73/24
f 94/74/25 96/75/25 40/20/25
f 92/76/25 138/77/25 17/9/25
f 46/78/26 27/46/26 42/79/26
f 56/40/26 70/55/26 94/80/26
f 53/34/22 59/81/22 96/82/22
f 83/83/24 96/82/24 94/80/24
f 50/37/22 63/39/22 92/84/22
f 66/54/26 75/53/26 85/85/26
f 85/85/24 92/84/24 89/86/24
s 1
f 120/87/23 128/88/27 135/89/23
f 113/90/27 134/91/10 128/88/27
f 117/92/28 134/91/10 119/93/10
f 116/94/22 133/95/28 117/92/28
f 118/96/29 131/97/22 116/94/22
f 114/98/12 132/99/29 118/96/29
f 115/100/30 129/101/12 114/98/12
f 109/102/15 126/103/31 111/104/31
f 109/102/15 122/105/32 125/106/15
f 107/107/32 121/108/26 122/105/32
f 106/109/26 123/110/33 121/108/26
f 108/111/33 127/112/18 123/110/33
f 112/113/18 124/114/34 127/112/18
f 110/115/34 135/89/23 124/114/34
s 0
f 101/52/26 98/116/26 111/104/26
f 102/117/22 105/118/22 130/119/22
s 1
f 6/120/25 9/121/35 2/122/25
f 14/123/35 20/124/15 9/121/35
f 22/125/15 26/126/32 20/124/15
f 30/127/32 34/128/26 26/126/32
f 35/129/26 37/130/33 34/128/26
f 39/131/33 41/132/18 37/130/33
f 41/132/18 82/133/36 86/134/36
f 58/135/10 88/136/37 60/137/10
f 60/137/10 61/138/28 58/135/10
f 64/139/28 65/140/22 61/138/28
f 67/141/22 69/142/29 65/140/22
f 72/143/29 73/144/12 69/142/29
f 31/145/24 93/146/24 43/147/24
f 82/148/24 97/149/24 84/150/24
f 48/151/24 84/150/24 97/149/24
f 76/152/12 77/153/38 73/144/12
f 80/154/38 2/122/25 77/153/38
f 28/155/21 11/156/21 2/157/21
f 90/158/21 95/159/21 54/160/21
f 49/161/21 54/160/21 95/159/21
s 0
f 88/136/22 91/162/22 138/77/22
f 86/134/26 82/133/26 140/163/26
f 23/164/23 146/71/23 147/165/23
f 4/166/23 145/64/23 144/167/23
f 4/166/21 54/160/21 49/161/21
f 23/164/24 48/151/24 51/168/24
f 1/25/9 5/66/9 15/26/9
f 7/28/10 12/169/10 5/3/10
f 19/10/11 24/12/11 12/6/11
f 17/9/12 15/8/12 24/29/12
f 17/9/13 138/77/13 137/31/13
f 40/20/13 38/19/13 136/32/13
f 47/24/14 59/81/14 53/34/14
f 21/11/14 19/10/14 52/35/14
f 50/37/14 142/170/14 141/38/14
f 56/40/14 62/171/14 140/41/14
f 42/21/15 40/20/15 47/43/15
f 38/45/16 42/79/16 27/46/16
f 32/16/17 36/18/17 46/23/17
f 29/15/18 27/14/18 36/48/18
f 25/13/19 29/15/19 100/50/19
f 1/1/19 98/116/19 101/52/19
f 10/5/20 7/4/20 75/53/20
f 70/55/20 105/172/20 102/56/20
f 74/58/20 103/173/20 104/59/20
f 32/16/20 71/70/20 79/61/20
f 109/102/21 111/104/21 98/116/21
f 1/174/21 13/175/21 112/176/21
f 13/175/21 137/177/21 144/167/21
f 13/175/21 144/167/21 110/178/21
f 1/174/21 112/176/21 108/179/21
f 109/180/21 98/181/21 107/182/21
f 98/181/21 1/174/21 107/182/21
f 144/167/21 145/64/21 120/63/21
f 145/64/21 136/183/21 38/184/21
f 25/185/21 99/186/21 118/187/21
f 99/51/21 115/100/21 114/98/21
f 99/186/21 114/188/21 118/187/21
f 145/64/21 38/184/21 113/62/21
f 38/184/21 25/185/21 119/189/21
f 119/189/21 25/185/21 117/190/21
f 106/191/21 107/182/21 1/174/21
f 108/179/21 106/191/21 1/174/21
f 25/185/21 118/187/21 116/192/21
f 112/176/21 13/175/21 110/178/21
f 110/178/21 144/167/21 120/63/21
f 25/185/21 116/192/21 117/190/21
f 38/184/21 119/189/21 113/62/21
f 12/65/22 24/193/22 15/26/22
f 85/68/23 75/194/23 7/28/23
f 101/52/23 103/195/23 87/67/23
f 103/195/23 74/196/23 87/67/23
f 85/68/23 7/28/23 3/2/23
f 101/52/23 87/67/23 3/2/23
f 29/15/23 33/49/23 81/197/23
f 33/49/23 79/198/23 81/197/23
f 78/199/23 102/117/23 83/69/23
f 102/117/23 100/50/23 83/69/23
f 29/15/23 81/197/23 83/69/23
f 10/5/24 66/54/24 52/35/24
f 44/22/24 53/34/24 71/70/24
f 129/101/24 130/119/24 105/118/24
f 70/55/24 56/40/24 133/200/24
f 56/40/24 143/42/24 147/165/24
f 56/40/24 147/165/24 134/201/24
f 133/200/24 56/40/24 134/201/24
f 129/202/24 105/172/24 70/55/24
f 132/203/24 129/202/24 70/55/24
f 147/165/24 146/71/24 135/204/24
f 146/71/24 142/170/24 50/37/24
f 68/60/24 104/59/24 125/205/24
f 104/59/24 126/206/24 125/205/24
f 146/71/24 50/37/24 127/72/24
f 50/37/24 68/60/24 123/207/24
f 131/208/24 132/203/24 70/55/24
f 133/200/24 131/208/24 70/55/24
f 68/60/24 125/205/24 122/209/24
f 68/60/24 122/209/24 121/210/24
f 134/201/24 147/165/24 128/211/24
f 128/211/24 147/165/24 135/204/24
f 50/37/24 123/207/24 127/72/24
f 68/60/24 121/210/24 123/207/24
f 124/73/24 135/204/24 146/71/24
f 139/33/25 140/163/25 94/74/25
f 140/163/25 62/212/25 94/74/25
f 59/213/25 47/43/25 96/75/25
f 47/43/25 40/20/25 96/75/25
f 139/33/25 94/74/25 40/20/25
f 92/76/25 63/214/25 141/215/25
f 17/9/25 21/30/25 89/216/25
f 21/30/25 57/217/25 89/216/25
f 92/76/25 141/215/25 138/77/25
f 17/9/25 89/216/25 92/76/25
f 46/78/26 36/218/26 27/46/26
f 78/57/26 83/83/26 70/55/26
f 83/83/26 94/80/26 70/55/26
f 94/80/26 62/171/26 56/40/26
f 96/82/22 81/219/22 71/70/22
f 81/219/22 79/61/22 71/70/22
f 71/70/22 53/34/22 96/82/22
f 83/83/24 81/219/24 96/82/24
f 92/84/22 87/220/22 68/60/22
f 87/220/22 74/58/22 68/60/22
f 68/60/22 50/37/22 92/84/22
f 85/85/26 89/86/26 52/35/26
f 89/86/26 57/36/26 52/35/26
f 52/35/26 66/54/26 85/85/26
f 85/85/24 87/220/24 92/84/24
s 1
f 120/87/23 113/90/27 128/88/27
f 113/90/27 119/93/10 134/91/10
f 117/92/28 133/95/28 134/91/10
f 116/94/22 131/97/22 133/95/28
f 118/96/29 132/99/29 131/97/22
f 114/98/12 129/101/12 132/99/29
f 115/100/30 130/119/30 129/101/12
f 109/102/15 125/106/15 126/103/31
f 109/102/15 107/107/32 122/105/32
f 107/107/32 106/109/26 121/108/26
f 106/109/26 108/111/33 123/110/33
f 108/111/33 112/113/18 127/112/18
f 112/113/18 110/115/34 124/114/34
f 110/115/34 120/87/23 135/89/23
s 0
f 111/104/26 126/103/26 103/195/26
f 126/103/26 104/221/26 103/195/26
f 103/195/26 101/52/26 111/104/26
f 130/119/22 115/100/22 100/50/22
f 115/100/22 99/51/22 100/50/22
f 100/50/22 102/117/22 130/119/22
s 1
f 6/120/25 14/123/35 9/121/35
f 14/123/35 22/125/15 20/124/15
f 22/125/15 30/127/32 26/126/32
f 30/127/32 35/129/26 34/128/26
f 35/129/26 39/131/33 37/130/33
f 39/131/33 43/222/18 41/132/18
f 41/132/18 43/222/18 82/133/36
f 58/135/10 91/162/37 88/136/37
f 60/137/10 64/139/28 61/138/28
f 64/139/28 67/141/22 65/140/22
f 67/141/22 72/143/29 69/142/29
f 72/143/29 76/152/12 73/144/12
f 67/223/24 64/224/24 16/225/24
f 64/224/24 60/226/24 16/225/24
f 60/226/24 88/227/24 16/225/24
f 76/228/24 72/229/24 16/225/24
f 72/229/24 67/223/24 16/225/24
f 6/230/24 80/231/24 16/225/24
f 80/231/24 76/228/24 16/225/24
f 22/232/24 14/233/24 31/145/24
f 14/233/24 6/230/24 31/145/24
f 35/234/24 30/235/24 31/145/24
f 30/235/24 22/232/24 31/145/24
f 43/147/24 39/236/24 31/145/24
f 39/236/24 35/234/24 31/145/24
f 93/146/24 82/148/24 43/147/24
f 16/225/24 31/145/24 6/230/24
f 82/148/24 93/146/24 97/149/24
f 97/149/24 93/146/24 31/145/24
f 31/145/24 16/225/24 97/149/24
f 16/225/24 88/227/24 55/237/24
f 97/149/24 16/225/24 51/168/24
f 55/237/24 51/168/24 16/225/24
f 51/168/24 48/151/24 97/149/24
f 76/152/12 80/154/38 77/153/38
f 80/154/38 6/120/25 2/122/25
f 37/238/21 41/239/21 28/155/21
f 41/239/21 86/240/21 28/155/21
f 26/241/21 34/242/21 28/155/21
f 34/242/21 37/238/21 28/155/21
f 9/243/21 20/244/21 28/155/21
f 20/244/21 26/241/21 28/155/21
f 77/245/21 2/157/21 11/156/21
f 2/157/21 9/243/21 28/155/21
f 69/246/21 73/247/21 11/156/21
f 73/247/21 77/245/21 11/156/21
f 61/248/21 65/249/21 11/156/21
f 65/249/21 69/246/21 11/156/21
f 91/250/21 58/251/21 11/156/21
f 58/251/21 61/248/21 11/156/21
f 95/159/21 90/158/21 91/250/21
f 91/250/21 11/156/21 95/159/21
f 11/156/21 28/155/21 49/161/21
f 95/159/21 11/156/21 49/161/21
f 28/155/21 86/240/21 45/252/21
f 45/252/21 49/161/21 28/155/21
s 0
f 146/71/22 8/253/22 142/170/22
f 8/253/22 88/227/22 142/170/22
f 91/250/22 4/166/22 137/177/22
f 4/166/22 144/167/22 137/177/22
f 141/215/22 142/254/22 88/136/22
f 91/162/22 137/31/22 138/77/22
f 138/77/22 141/215/22 88/136/22
f 136/183/26 145/64/26 18/255/26
f 82/148/26 23/164/26 143/42/26
f 23/164/26 147/165/26 143/42/26
f 136/183/26 18/255/26 86/240/26
f 139/33/26 136/32/26 86/134/26
f 82/133/26 143/256/26 140/163/26
f 140/163/26 139/33/26 86/134/26
f 23/164/23 8/253/23 146/71/23
f 4/166/23 18/255/23 145/64/23
f 45/252/21 86/240/21 18/255/21
f 18/255/21 4/166/21 49/161/21
f 4/166/21 91/250/21 90/158/21
f 54/160/21 4/166/21 90/158/21
f 49/161/21 45/252/21 18/255/21
f 55/237/24 88/227/24 8/253/24
f 8/253/24 23/164/24 51/168/24
f 23/164/24 82/148/24 84/150/24
f 48/151/24 23/164/24 84/150/24
f 51/168/24 55/237/24 8/253/24
