# Blender 5.0.1
# www.blender.org
o Straight_Stop_Final
v -0.340854 -0.124396 0.350233
v -0.340854 -0.114396 0.360233
v -0.350854 -0.114396 0.350233
v -0.340854 0.065604 0.360233
v -0.340854 0.075604 0.350233
v -0.350854 0.065604 0.350233
v 0.339146 -0.124396 0.350233
v 0.349146 -0.114396 0.350233
v 0.339146 -0.114396 0.360233
v 0.339146 0.075604 0.350233
v 0.339146 0.065604 0.360233
v 0.349146 0.065604 0.350233
v -0.275854 0.075604 0.350233
v -0.175854 0.075604 0.350233
v 0.174146 0.075604 0.350233
v 0.274146 0.075604 0.350233
v -0.175854 0.065604 0.360233
v -0.275854 0.065604 0.360233
v 0.174146 0.065604 0.360233
v 0.274146 0.065604 0.360233
v 0.274146 -0.024396 0.360233
v 0.174146 -0.024396 0.360233
v -0.275854 -0.024396 0.360233
v -0.175854 -0.024396 0.360233
v -0.077854 -0.124396 0.350233
v 0.076146 -0.124396 0.350233
v 0.076146 -0.114396 0.360233
v -0.077854 -0.114396 0.360233
v 0.076146 0.065604 0.360233
v -0.077854 0.065604 0.360233
v -0.077854 0.075604 0.350233
v 0.076146 0.075604 0.350233
v -0.110854 -0.124396 0.210233
v -0.102481 -0.124396 0.252328
v -0.102481 -0.124396 0.168138
v -0.077854 -0.124396 0.288537
v -0.042949 -0.124396 0.108606
v -0.078636 -0.124396 0.132451
v 0.041241 -0.124396 0.108606
v 0.076928 -0.124396 0.288015
v 0.076146 -0.124396 0.288537
v 0.109146 -0.124396 0.210233
v 0.100773 -0.124396 0.168138
v 0.100773 -0.124396 0.252328
v 0.076928 -0.124396 0.132451
v -0.000854 -0.124396 0.100233
v -0.110854 0.075604 0.210233
v -0.102481 0.075604 0.252328
v -0.102481 0.075604 0.168138
v -0.042949 0.075604 0.108606
v -0.078636 0.075604 0.288015
v -0.077854 0.075604 0.288537
v -0.078636 0.075604 0.132451
v 0.041241 0.075604 0.108606
v 0.076928 0.075604 0.288015
v 0.076146 0.075604 0.288537
v 0.109146 0.075604 0.210233
v 0.100773 0.075604 0.252328
v 0.100773 0.075604 0.168138
v 0.076928 0.075604 0.132451
v -0.000854 0.075604 0.100233
v 0.349146 -0.114396 -0.627448
v -0.340854 -0.124396 -0.627448
v -0.275854 0.075604 -0.627449
v 0.339146 0.075604 -0.627448
v 0.274146 0.075604 -0.627449
v 0.349146 0.065604 -0.627448
v 0.174146 0.075604 -0.627449
v 0.174146 -0.024396 -0.636468
v 0.274146 -0.024396 -0.636468
v 0.339146 -0.124396 -0.627448
v -0.175854 -0.024396 -0.636468
v -0.175854 0.075604 -0.627449
v -0.275854 -0.024396 -0.636468
v -0.350854 0.065604 -0.627448
v -0.350854 -0.114396 -0.627448
v -0.340854 -0.114396 -0.636468
v -0.340854 0.075604 -0.627448
v 0.339146 -0.114396 -0.636468
v -0.275854 0.065604 -0.636468
v 0.274146 0.065604 -0.636468
v -0.175854 0.065604 -0.636468
v -0.340854 0.065604 -0.636468
v 0.174146 0.065604 -0.636468
v 0.339146 0.065604 -0.636468
v 0.174146 0.214745 -0.310402
v -0.175854 0.214745 -0.310402
v 0.174146 0.075604 -0.138348
v -0.175854 0.075604 -0.138348
v -0.175854 0.214745 -0.138348
v 0.174146 0.214745 -0.138348
v -0.175854 0.075604 -0.310402
v -0.175854 0.075604 -0.504306
v 0.174146 0.075604 -0.504306
v 0.174146 0.075604 -0.310402
v 0.328720 0.496446 -0.062468
v 0.328720 0.496446 -0.310402
v 0.328720 0.214745 -0.062468
v 0.328720 0.214745 -0.310402
v -0.330427 0.214745 -0.310402
v -0.330427 0.214745 -0.062468
v -0.330427 0.496446 -0.310402
v -0.330427 0.496446 -0.062468
vn -0.4606 -0.7588 0.4606
vn -0.4606 -0.4606 0.7588
vn -0.8756 -0.3416 0.3416
vn -0.4606 0.4606 0.7588
vn -0.3416 0.8756 0.3416
vn -0.8756 0.3416 0.3416
vn 0.4606 -0.7588 0.4606
vn 0.8756 -0.3416 0.3416
vn 0.4606 -0.4606 0.7588
vn 0.4606 0.7588 0.4606
vn 0.4606 0.4606 0.7588
vn 0.8756 0.3416 0.3416
vn -0.8320 -0.3922 0.3922
vn -0.8306 -0.3960 0.3916
vn 0.8320 -0.3922 0.3922
vn -0.0000 0.7071 0.7071
vn -0.0000 0.9239 0.3827
vn 0.8321 0.3922 0.3922
vn 0.8320 0.3922 0.3922
vn -0.8320 0.3922 0.3922
vn -0.8321 0.3922 0.3922
vn -0.8683 -0.3387 -0.3624
vn -0.4568 -0.7433 -0.4887
vn -0.0000 -0.0000 1.0000
vn 1.0000 -0.0000 -0.0000
vn -0.3827 -0.0000 0.9239
vn -0.7071 -0.0000 0.7071
vn -0.9239 -0.0000 0.3827
vn -1.0000 -0.0000 -0.0000
vn -0.9239 -0.0000 -0.3827
vn -0.6745 -0.3001 -0.6745
vn -0.6955 -0.6148 -0.3718
vn -0.7071 -0.0000 -0.7071
vn 0.9557 0.0001 -0.2942
vn 0.9237 0.0008 -0.3832
vn 0.6747 0.3009 -0.6740
vn 0.9223 -0.0000 -0.3865
vn 0.9239 -0.0000 0.3827
vn 0.7071 -0.0000 0.7071
vn 0.3827 -0.0000 0.9239
vn -0.8819 -0.0000 -0.4714
vn -0.0000 1.0000 -0.0000
vn 1.0000 0.0053 -0.0000
vn 0.6955 0.6148 -0.3718
vn -0.0000 -1.0000 -0.0000
vn 0.8683 0.3387 -0.3624
vn 0.8683 -0.3387 -0.3624
vn 0.4568 -0.7433 -0.4887
vn -0.0000 0.6697 -0.7426
vn -0.3387 0.8683 -0.3624
vn -0.2399 0.6502 -0.7209
vn -0.6835 0.6835 -0.2560
vn -0.4356 -0.4356 -0.7877
vn 0.4356 -0.4356 -0.7877
vn 0.4356 0.4356 -0.7877
vn 0.4568 0.7433 -0.4887
vn -0.9137 -0.0000 -0.4064
vn -0.0000 -0.0000 -1.0000
vn -0.0000 0.9137 -0.4064
vn -0.0000 0.8125 -0.5830
vn -0.0000 0.9520 -0.3062
vn -0.6697 -0.0000 -0.7426
vt 0.543362 0.471229
vt 0.538180 0.471987
vt 0.539226 0.466884
vt 0.543906 0.488496
vt 0.549129 0.490240
vt 0.545689 0.494553
vt 0.542938 0.921829
vt 0.538780 0.926159
vt 0.537768 0.921044
vt 0.044567 0.334875
vt 0.040112 0.337134
vt 0.040912 0.331464
vt 0.470216 0.470093
vt 0.470244 0.927799
vt 0.470115 0.922414
vt 0.536548 0.822312
vt 0.541127 0.820433
vt 0.536597 0.571058
vt 0.556392 0.464639
vt 0.561599 0.467371
vt 0.866941 0.444165
vt 0.904122 0.449530
vt 0.866941 0.449530
vt 0.999728 0.449530
vt 0.962548 0.444165
vt 0.999728 0.444165
vt 0.054478 0.356833
vt 0.565484 0.863276
vt 0.910270 0.749649
vt 0.912579 0.754181
vt 0.502994 0.533682
vt 0.503612 0.495741
vt 0.502985 0.859453
vt 0.114089 0.917013
vt 0.110295 0.920807
vt 0.076150 0.920807
vt 0.540973 0.696715
vt 0.464550 0.713188
vt 0.464531 0.696763
vt 0.540981 0.713144
vt 0.464578 0.729607
vt 0.540963 0.745989
vt 0.540978 0.729570
vt 0.540936 0.762396
vt 0.464613 0.746016
vt 0.540896 0.778787
vt 0.464657 0.762411
vt 0.540843 0.795159
vt 0.464707 0.778787
vt 0.540660 0.795463
vt 0.464763 0.795140
vt 0.540733 0.597979
vt 0.464586 0.614693
vt 0.464632 0.598320
vt 0.540793 0.614670
vt 0.464553 0.631086
vt 0.540846 0.631051
vt 0.464531 0.647493
vt 0.540891 0.647451
vt 0.464521 0.663911
vt 0.540928 0.663864
vt 0.464521 0.680336
vt 0.540955 0.680287
vt 0.541190 0.572950
vt 0.468778 0.822575
vt 0.464981 0.818793
vt 0.464941 0.795424
vt 0.470382 0.464639
vt 0.904122 0.444165
vt 0.962548 0.449530
vt 0.058764 0.353707
vt 0.543906 0.794474
vt 0.563906 0.858255
vt 0.469491 0.494737
vt 0.468569 0.570664
vt 0.468819 0.533451
vt 0.503493 0.897191
vt 0.469585 0.897925
vt 0.468962 0.859622
vt 0.962548 0.420758
vt 0.962844 0.420560
vt 0.933335 0.349317
vt 0.917364 0.352494
vt 0.866941 0.258802
vt 0.459880 0.542124
vt 0.423011 0.542124
vt 0.463977 0.538028
vt 0.382045 0.542124
vt 0.345175 0.542124
vt 0.341079 0.538028
vt 0.038211 0.920807
vt 0.004066 0.920807
vt 0.000272 0.917013
vt 0.076150 0.542668
vt 0.464687 0.597932
vt 0.464753 0.574458
vt 0.114633 0.913592
vt 0.227656 0.634339
vt 0.243626 0.637516
vt 0.382031 0.133826
vt 0.425952 0.888406
vt 0.373163 0.888406
vt 0.425952 0.814840
vt 0.009488 0.004970
vt 0.324419 0.114707
vt 0.000272 0.064649
vt 0.373163 0.681509
vt 0.425952 0.814296
vt 0.373163 0.814296
vt 0.333574 0.055013
vt 0.010217 0.000272
vt 0.335022 0.050652
vt 0.962341 0.464639
vt 0.967450 0.597426
vt 0.962341 0.597426
vt 0.891983 0.680877
vt 0.895662 0.684205
vt 0.890335 0.685842
vt 0.915078 0.749121
vt 0.935232 0.000272
vt 0.940341 0.258258
vt 0.935232 0.258258
vt 0.337940 0.054833
vt 0.329399 0.115446
vt 0.326566 0.118934
vt 0.901086 0.062872
vt 0.901086 0.195658
vt 0.904815 0.658274
vt 0.909608 0.661170
vt 0.341080 0.137512
vt 0.634452 0.996606
vt 0.543906 0.863820
vt 0.634452 0.863820
vt 0.373163 0.616234
vt 0.425952 0.681509
vt 0.425952 0.616234
vt 0.373163 0.542668
vt 0.915622 0.464639
vt 0.915622 0.597426
vt 0.425952 0.953681
vt 0.000272 0.666375
vt 0.000272 0.592809
vt 0.038211 0.542668
vt 0.463977 0.337876
vt 0.759523 0.107147
vt 0.665459 0.357221
vt 0.665459 0.107147
vt 0.759523 0.000272
vt 0.665459 0.000272
vt 0.866397 0.165790
vt 0.866397 0.298577
vt 0.759523 0.357221
vt 0.529796 0.165790
vt 0.558584 0.107147
vt 0.558585 0.357221
vt 0.665459 0.464095
vt 0.759523 0.464095
vt 0.903825 0.420560
vt 0.971891 0.407021
vt 0.894778 0.407021
vt 0.891602 0.391050
vt 0.975068 0.391050
vt 0.971891 0.375080
vt 0.894778 0.375080
vt 0.999728 0.258802
vt 0.962844 0.361541
vt 0.903825 0.361541
vt 0.949305 0.352494
vt 0.282182 0.579812
vt 0.272839 0.566075
vt 0.272839 0.542668
vt 0.372619 0.542668
vt 0.372619 0.913592
vt 0.282182 0.611754
vt 0.285359 0.595783
vt 0.114633 0.542668
vt 0.205070 0.611754
vt 0.214413 0.542668
vt 0.205070 0.579812
vt 0.214116 0.566273
vt 0.201893 0.595783
vt 0.273136 0.625293
vt 0.214116 0.625293
vt 0.259597 0.634339
vt 0.110295 0.542668
vt 0.114089 0.546090
vt 0.345079 0.134052
vt 0.423011 0.133816
vt 0.967450 0.464639
vt 0.940341 0.000272
vt 0.866941 0.195658
vt 0.866941 0.062872
vt 0.866941 0.258258
vt 0.866941 0.233597
vt 0.901086 0.233597
vt 0.866941 0.024932
vt 0.866941 0.000272
vt 0.901086 0.024932
vt 0.543906 0.996606
vt 0.373163 0.953681
vt 0.000272 0.546090
vt 0.004066 0.542668
vt 0.000272 0.731650
vt 0.459880 0.133816
vt 0.463977 0.137511
vt 0.463977 0.187957
vt 0.463977 0.267392
vt 0.866397 0.357221
vt 0.866397 0.107147
vt 0.464521 0.357221
vt 0.464521 0.298577
vt 0.529796 0.298577
vt 0.464521 0.165790
vt 0.464521 0.107147
s 1
f 1/1/1 2/2/2 3/3/3
f 4/4/4 5/5/5 6/6/6
f 7/7/7 8/8/8 9/9/9
f 10/10/10 11/11/11 12/12/12
f 4/13/4 3/3/3 2/2/2
f 9/9/9 12/14/12 11/15/11
f 7/7/7 27/16/13 26/17/14
f 1/1/1 28/18/15 2/2/2
f 5/5/5 18/19/16 13/20/17
f 15/21/18 29/22/16 19/23/19
f 17/24/20 31/25/16 14/26/21
f 10/10/10 20/27/21 11/11/11
f 1/28/1 76/29/22 63/30/23
f 24/31/24 23/32/24 2/2/24
f 9/9/24 22/33/24 27/16/24
f 13/34/25 18/35/25 23/36/25
f 46/37/24 54/38/26 61/39/24
f 39/40/26 60/41/27 54/38/26
f 43/42/28 60/41/27 45/43/27
f 42/44/29 59/45/28 43/42/28
f 44/46/30 57/47/29 42/44/29
f 40/48/31 58/49/30 44/46/30
f 41/50/32 55/51/33 40/48/31
f 36/52/34 48/53/35 51/54/36
f 34/55/37 47/56/25 48/53/35
f 33/57/25 49/58/38 47/56/25
f 35/59/38 53/60/39 49/58/38
f 38/61/39 50/62/40 53/60/39
f 37/63/40 61/39/24 50/62/40
f 28/18/15 25/64/15 36/52/34
f 29/65/29 32/66/29 56/67/41
f 4/13/4 6/68/6 3/3/3
f 9/9/9 8/8/8 12/14/12
f 7/7/7 9/9/9 27/16/13
f 1/1/1 25/64/15 28/18/15
f 5/5/5 4/4/4 18/19/16
f 15/21/18 32/69/16 29/22/16
f 17/24/20 30/70/16 31/25/16
f 10/10/10 16/71/21 20/27/21
f 26/17/14 41/50/32 40/48/31
f 6/72/6 76/29/22 3/73/3
f 23/32/24 18/74/24 4/13/24
f 28/18/24 30/75/24 24/31/24
f 30/75/24 17/76/24 24/31/24
f 23/32/24 4/13/24 2/2/24
f 28/18/24 24/31/24 2/2/24
f 9/9/24 11/15/24 21/77/24
f 11/15/24 20/78/24 21/77/24
f 19/79/24 29/65/24 22/33/24
f 29/65/24 27/16/24 22/33/24
f 9/9/24 21/77/24 22/33/24
f 55/51/42 56/67/42 32/66/42
f 31/25/43 52/80/44 51/81/36
f 61/82/42 54/83/42 88/84/42
f 19/85/19 22/86/25 15/87/18
f 21/88/29 20/89/21 16/90/21
f 24/91/29 17/92/20 14/93/21
f 24/91/42 74/94/42 23/36/42
f 46/37/24 39/40/26 54/38/26
f 39/40/26 45/43/27 60/41/27
f 43/42/28 59/45/28 60/41/27
f 42/44/29 57/47/29 59/45/28
f 44/46/30 58/49/30 57/47/29
f 40/48/31 55/51/33 58/49/30
f 41/50/32 56/67/41 55/51/33
f 36/52/34 51/54/36 52/95/44
f 36/52/34 34/55/37 48/53/35
f 34/55/37 33/57/25 47/56/25
f 33/57/25 35/59/38 49/58/38
f 35/59/38 38/61/39 53/60/39
f 38/61/39 37/63/40 50/62/40
f 37/63/40 46/37/24 61/39/24
f 36/52/34 52/95/44 30/75/25
f 52/95/44 31/96/43 30/75/25
f 30/75/25 28/18/15 36/52/34
f 56/67/41 41/50/32 27/16/13
f 41/50/32 26/17/14 27/16/13
f 27/16/13 29/65/29 56/67/41
f 71/97/45 39/98/45 46/99/45
f 13/34/25 23/36/25 74/94/25
f 70/100/29 21/88/29 16/90/21
f 92/101/29 87/102/29 93/103/29
f 8/104/8 67/105/46 12/106/12
f 88/107/24 90/108/24 89/109/24
f 70/100/42 22/86/42 21/88/42
f 62/110/47 7/111/7 71/112/48
f 68/113/49 82/114/49 73/115/49
f 13/20/17 78/116/50 5/5/5
f 78/116/50 83/117/51 75/118/52
f 76/29/22 77/119/53 63/30/23
f 79/120/54 63/121/23 77/122/53
f 71/112/48 79/123/54 62/110/47
f 85/124/55 62/110/47 79/123/54
f 67/105/46 85/124/55 65/125/56
f 75/118/57 77/119/53 76/29/22
f 69/126/58 79/120/58 72/127/58
f 83/117/51 64/128/59 80/129/49
f 85/124/55 66/130/49 65/125/56
f 65/125/42 16/71/42 10/10/42
f 86/131/60 93/132/61 87/133/60
f 67/105/46 10/10/10 12/12/12
f 78/116/50 6/6/6 5/5/5
f 95/134/25 91/135/25 88/107/25
f 86/136/25 95/134/25 94/137/25
f 94/138/61 73/115/42 93/139/61
f 89/140/29 87/102/29 92/101/29
f 92/141/29 93/142/29 72/143/29
f 88/144/25 15/87/18 22/86/25
f 97/145/42 103/146/42 96/147/42
f 99/148/25 96/147/25 98/149/25
f 86/150/58 87/151/58 102/152/58
f 91/153/45 98/154/45 101/155/45
f 101/156/29 102/152/29 100/157/29
f 98/154/24 103/146/24 101/155/24
f 1/28/1 3/73/3 76/29/22
f 6/72/6 75/118/57 76/29/22
f 55/158/42 32/69/42 15/21/42
f 14/26/42 31/25/42 51/81/42
f 14/26/42 51/81/42 48/159/42
f 58/160/42 55/158/42 15/21/42
f 57/161/42 58/160/42 15/21/42
f 14/26/42 48/159/42 47/162/42
f 14/26/42 47/162/42 49/163/42
f 57/161/42 15/21/42 59/164/42
f 15/21/42 88/84/42 59/164/42
f 89/165/42 14/26/42 49/163/42
f 89/165/42 49/163/42 53/166/42
f 60/167/42 59/164/42 88/84/42
f 54/83/42 60/167/42 88/84/42
f 88/84/42 89/165/42 61/82/42
f 89/165/42 53/166/42 50/168/42
f 89/165/42 50/168/42 61/82/42
f 24/91/42 72/143/42 74/94/42
f 34/169/45 36/170/45 25/171/45
f 25/171/45 1/172/45 34/169/45
f 1/172/45 63/173/45 35/174/45
f 34/169/45 1/172/45 33/175/45
f 63/173/45 71/97/45 46/99/45
f 71/97/45 7/176/45 43/177/45
f 7/176/45 26/178/45 44/179/45
f 26/178/45 40/180/45 44/179/45
f 33/175/45 1/172/45 35/174/45
f 7/176/45 44/179/45 42/181/45
f 7/176/45 42/181/45 43/177/45
f 38/182/45 35/174/45 63/173/45
f 71/97/45 43/177/45 45/183/45
f 71/97/45 45/183/45 39/98/45
f 37/184/45 38/182/45 63/173/45
f 46/99/45 37/184/45 63/173/45
f 80/185/25 64/186/25 74/94/25
f 64/186/25 13/34/25 74/94/25
f 16/90/21 66/130/29 70/100/29
f 66/130/29 81/187/29 70/100/29
f 8/104/8 62/110/47 67/105/46
f 88/107/24 91/135/24 90/108/24
f 70/100/42 69/188/42 22/86/42
f 62/110/47 8/104/8 7/111/7
f 68/113/49 84/189/49 82/114/49
f 13/20/17 64/128/59 78/116/50
f 79/120/54 71/190/48 63/121/23
f 85/124/55 67/105/46 62/110/47
f 75/118/57 83/117/62 77/119/53
f 72/127/58 82/191/58 84/192/58
f 72/127/58 84/192/58 69/126/58
f 83/193/58 80/194/58 74/195/58
f 77/122/58 83/193/58 74/195/58
f 81/196/58 85/197/58 70/198/58
f 85/197/58 79/120/58 70/198/58
f 79/120/58 77/122/58 72/127/58
f 77/122/58 74/195/58 72/127/58
f 69/126/58 70/198/58 79/120/58
f 83/117/51 78/116/50 64/128/59
f 85/124/55 81/187/49 66/130/49
f 65/125/42 66/130/42 16/71/42
f 86/131/60 94/199/61 93/132/61
f 67/105/46 65/125/56 10/10/10
f 78/116/50 75/118/52 6/6/6
f 95/134/25 86/136/25 91/135/25
f 94/138/61 68/113/42 73/115/42
f 89/140/29 90/200/29 87/102/29
f 93/142/29 73/201/29 72/143/29
f 73/201/29 82/202/29 72/143/29
f 72/143/29 24/91/29 89/203/29
f 92/141/29 72/143/29 89/203/29
f 24/91/29 14/93/21 89/203/29
f 84/204/25 68/205/25 69/188/25
f 68/205/25 94/206/25 69/188/25
f 94/206/25 95/207/25 69/188/25
f 22/86/25 69/188/25 88/144/25
f 88/144/25 69/188/25 95/207/25
f 97/145/42 102/152/42 103/146/42
f 99/148/25 97/145/25 96/147/25
f 87/151/58 100/208/58 102/152/58
f 102/152/58 97/145/58 86/150/58
f 97/145/58 99/209/58 86/150/58
f 100/210/45 87/211/45 90/212/45
f 91/153/45 86/213/45 99/214/45
f 101/155/45 100/210/45 90/212/45
f 91/153/45 99/214/45 98/154/45
f 101/155/45 90/212/45 91/153/45
f 101/156/29 103/146/29 102/152/29
f 98/154/24 96/147/24 103/146/24
