# Blender 5.0.1
# www.blender.org
o Cross_Track_Final_-colonly
v 0.333333 -0.104840 -1.000000
v -0.333333 -0.104840 -1.000000
v -0.333333 0.104840 -1.000000
v 0.333333 0.104840 -1.000000
v -0.333333 -0.104840 1.000000
v 0.333333 -0.104840 1.000000
v 0.333333 0.104840 1.000000
v -0.333333 0.104840 1.000000
v -1.000000 -0.104840 -0.333333
v -1.000000 -0.104840 0.333333
v -1.000000 0.104840 0.333333
v -1.000000 0.104840 -0.333333
v 1.000000 -0.104840 0.333333
v 1.000000 -0.104840 -0.333333
v 1.000000 0.104840 -0.333333
v 1.000000 0.104840 0.333333
v 0.333333 0.104840 -0.333333
v 0.333333 0.104840 0.333333
v -0.333333 0.104840 -0.333333
v -0.333333 0.104840 0.333333
v -0.333333 -0.104840 -0.333333
v -0.333333 -0.104840 0.333333
v 0.333333 -0.104840 -0.333333
v 0.333333 -0.104840 0.333333
vn -0.0000 -0.0000 1.0000
vn -0.0000 -0.0000 -1.0000
vn -0.0000 1.0000 -0.0000
vn -0.0000 -1.0000 -0.0000
vn 1.0000 -0.0000 -0.0000
vn -1.0000 -0.0000 -0.0000
vt 0.208333 0.666667
vt 0.791667 0.666667
vt 0.625000 0.083333
vt 0.125000 0.666667
vt 0.291667 0.666667
vt 0.375000 0.666667
vt 0.625000 0.666667
vt 0.708333 0.666667
vt 0.291667 0.583333
vt 0.708333 0.583333
vt 0.625000 0.583333
vt 0.375000 0.583333
vt 0.791667 0.750000
vt 0.708333 0.750000
vt 0.291667 0.750000
vt 0.208333 0.750000
vt 0.291667 0.500000
vt 0.625000 0.416667
vt 0.375000 0.833333
vt 0.625000 0.833333
vt 0.625000 0.916667
vt 0.375000 0.916667
vt 0.375000 0.333333
vt 0.625000 0.333333
vt 0.375000 0.416667
vt 0.208333 0.500000
vt 0.208333 0.583333
vt 0.125000 0.583333
vt 0.708333 0.500000
vt 0.791667 0.500000
vt 0.791667 0.583333
vt 0.875000 0.583333
vt 0.875000 0.666667
vt 0.375000 0.083333
vt 0.625000 0.166667
vt 0.375000 0.166667
s 0
f 22/1/1 20/2/1 11/3/1 10/4/1
f 24/5/1 13/6/1 16/7/1 18/8/1
f 23/9/2 17/10/2 15/11/2 14/12/2
f 18/8/3 20/2/3 8/13/3 7/14/3
f 22/1/4 24/5/4 6/15/4 5/16/4
f 23/9/5 1/17/5 4/18/5 17/10/5
f 6/19/1 7/20/1 8/21/1 5/22/1
f 8/21/6 20/2/6 22/1/6 5/22/6
f 2/23/2 3/24/2 4/18/2 1/25/2
f 2/26/4 1/17/4 23/9/4 21/27/4
f 21/27/4 23/9/4 24/5/4 22/1/4
f 9/28/4 21/27/4 22/1/4 10/4/4
f 4/29/3 3/30/3 19/31/3 17/10/3
f 17/10/3 19/31/3 20/2/3 18/8/3
f 15/11/3 17/10/3 18/8/3 16/7/3
f 19/31/3 12/32/3 11/33/3 20/2/3
f 23/9/4 14/12/4 13/6/4 24/5/4
f 24/5/5 18/8/5 7/20/5 6/15/5
f 14/12/5 15/11/5 16/7/5 13/6/5
f 10/34/6 11/3/6 12/35/6 9/36/6
f 21/27/2 9/36/2 12/32/2 19/31/2
f 3/30/6 2/26/6 21/27/6 19/31/6
