# Blender 5.0.1
# www.blender.org
o Turn_Left_Short_Final_-colonly
v -0.079190 -0.097430 0.475340
v -0.079190 0.097430 0.475340
v -0.604559 -0.097430 -0.602941
v -0.604559 0.097430 -0.602941
v 0.475340 -0.097430 0.079190
v 0.475340 0.097430 0.079190
v 0.043331 -0.097430 -0.814311
v 0.043331 0.097430 -0.814311
v -0.781714 0.097430 -1.386909
v -0.781714 -0.097430 -1.386909
v -0.101489 -0.097430 -1.428530
v -0.101489 0.097430 -1.428530
v -0.834636 0.097430 -1.981131
v -0.834636 -0.097430 -1.981131
v -0.153142 -0.097430 -1.978909
v -0.153142 0.097430 -1.978909
vn -0.8990 -0.0000 0.4380
vn -0.9754 -0.0000 0.2204
vn 0.9003 -0.0000 -0.4353
vn 0.5813 -0.0000 0.8137
vn -0.0000 -1.0000 -0.0000
vn -0.0000 1.0000 -0.0000
vn 0.9733 -0.0000 -0.2295
vn 0.0033 -0.0000 -1.0000
vn -0.9961 -0.0000 0.0887
vn 0.9956 -0.0000 -0.0934
vt 0.375000 0.000000
vt 0.625000 0.000000
vt 0.625000 0.250000
vt 0.375000 0.250000
vt 0.375000 0.500000
vt 0.625000 0.500000
vt 0.625000 0.750000
vt 0.375000 0.750000
vt 0.625000 1.000000
vt 0.375000 1.000000
vt 0.125000 0.500000
vt 0.125000 0.750000
vt 0.875000 0.500000
vt 0.875000 0.750000
s 0
f 1/1/1 2/2/1 4/3/1 3/4/1
f 3/4/2 4/3/2 9/3/2 10/4/2
f 7/5/3 8/6/3 6/7/3 5/8/3
f 5/8/4 6/7/4 2/9/4 1/10/4
f 3/11/5 7/5/5 5/8/5 1/12/5
f 8/6/6 4/13/6 2/14/6 6/7/6
f 9/13/6 12/6/6 16/6/6 13/13/6
f 8/6/7 7/5/7 11/5/7 12/6/7
f 7/5/5 3/11/5 10/11/5 11/5/5
f 4/13/6 8/6/6 12/6/6 9/13/6
f 14/4/8 13/3/8 16/6/8 15/5/8
f 10/4/9 9/3/9 13/3/9 14/4/9
f 12/6/10 11/5/10 15/5/10 16/6/10
f 11/5/5 10/11/5 14/11/5 15/5/5
