# Blender 5.0.1
# www.blender.org
o Train_Body
v -0.171796 0.140453 0.564675
v -0.171796 0.140453 -0.500000
v 0.171796 0.140453 0.564675
v 0.154785 0.487533 -0.114523
v 0.171796 0.140453 -0.500000
v -0.154785 0.487533 -0.114523
v -0.171796 0.248209 0.500000
v -0.171796 0.248209 -0.500000
v 0.171796 0.248209 -0.500000
v 0.171796 0.248209 0.500000
v -0.154785 0.260676 0.450489
v -0.154785 0.487533 0.450489
v -0.154785 0.487533 -0.450489
v 0.154785 0.487533 -0.450489
v 0.154785 0.487533 0.450489
v -0.154785 0.260676 -0.450489
v 0.154785 0.260676 -0.450489
v 0.154785 0.260676 0.450489
v 0.107437 0.524038 0.450489
v -0.107437 0.524038 0.450489
v 0.035812 0.552759 0.450489
v -0.035812 0.552759 0.450489
v -0.107437 0.524038 -0.114523
v 0.107437 0.524038 -0.114523
v -0.035812 0.552759 -0.114523
v 0.035812 0.552759 -0.114523
v 0.154785 0.736451 -0.450489
v 0.154785 0.736451 -0.114523
v -0.154785 0.736451 -0.114523
v -0.154785 0.736451 -0.450489
v 0.187017 0.736451 -0.485470
v 0.187017 0.736451 -0.079542
v -0.187017 0.736451 -0.079542
v -0.187017 0.736451 -0.485470
v 0.187017 0.802519 -0.485470
v 0.187017 0.802519 -0.079542
v -0.187017 0.802519 -0.079542
v -0.187017 0.802519 -0.485470
v -0.035068 0.148329 -0.505862
v 0.035068 0.148329 -0.505862
v 0.035068 0.240333 -0.505862
v -0.035068 0.240333 -0.505862
v -0.042944 0.248209 -0.500000
v 0.042944 0.248209 -0.500000
v 0.042944 0.140453 -0.500000
v -0.042944 0.140453 -0.500000
v -0.035068 0.194331 -0.563720
v -0.035068 0.240333 -0.584132
v -0.035068 0.222956 -0.570436
v -0.035068 0.165705 -0.570436
v -0.035068 0.148329 -0.584132
v 0.035068 0.194331 -0.563719
v 0.035068 0.165705 -0.570436
v 0.035068 0.148329 -0.584132
v 0.035068 0.222956 -0.570436
v 0.035068 0.240333 -0.584132
v -0.019063 0.148329 -0.571788
v 0.000000 0.148329 -0.567412
v 0.019063 0.148329 -0.571788
v 0.000000 0.240333 -0.567412
v 0.019063 0.240333 -0.571788
v -0.019063 0.240333 -0.571788
v 0.000000 0.269133 -0.624909
v 0.000000 0.222956 -0.694017
v 0.000000 0.194331 -0.699711
v 0.000000 0.165705 -0.694017
v 0.000000 0.125223 -0.653534
v 0.000000 0.119529 -0.624909
v 0.009491 0.263439 -0.651355
v 0.017537 0.247224 -0.673776
v 0.022913 0.222956 -0.688756
v 0.024800 0.194331 -0.694017
v 0.022913 0.165705 -0.688756
v 0.017537 0.141438 -0.673776
v 0.009491 0.125223 -0.651355
v 0.017537 0.263439 -0.645150
v 0.032403 0.247224 -0.662310
v 0.042337 0.222956 -0.673776
v 0.045825 0.194331 -0.677802
v 0.042337 0.165705 -0.673776
v 0.032403 0.141438 -0.662310
v 0.017537 0.125223 -0.645150
v 0.022913 0.263439 -0.635863
v 0.042337 0.247224 -0.645150
v 0.055316 0.222956 -0.651355
v 0.059873 0.194331 -0.653534
v 0.055316 0.165705 -0.651355
v 0.042337 0.141438 -0.645150
v 0.022913 0.125223 -0.635863
v 0.024800 0.263439 -0.624909
v 0.045825 0.247224 -0.624909
v 0.059873 0.222956 -0.624909
v 0.064806 0.194331 -0.624909
v 0.059873 0.165705 -0.624909
v 0.045825 0.141438 -0.624909
v 0.024800 0.125223 -0.624909
v 0.022913 0.263439 -0.613954
v 0.042337 0.247224 -0.604668
v 0.055316 0.222956 -0.598462
v 0.059873 0.194331 -0.596283
v 0.055316 0.165705 -0.598462
v 0.042337 0.141438 -0.604668
v 0.022913 0.125223 -0.613954
v 0.017537 0.263439 -0.604668
v 0.032403 0.247224 -0.587508
v 0.042337 0.222956 -0.576042
v 0.045825 0.194331 -0.572016
v 0.042337 0.165705 -0.576042
v 0.032403 0.141438 -0.587508
v 0.017537 0.125223 -0.604668
v 0.009491 0.263439 -0.598462
v 0.017536 0.247224 -0.576042
v 0.022913 0.222956 -0.561061
v 0.024800 0.194331 -0.555801
v 0.022913 0.165705 -0.561061
v 0.017536 0.141438 -0.576042
v 0.009491 0.125223 -0.598462
v 0.000000 0.263439 -0.596283
v 0.000000 0.247224 -0.572016
v 0.000000 0.222956 -0.555801
v 0.000000 0.194331 -0.550107
v 0.000000 0.165705 -0.555801
v 0.000000 0.141438 -0.572016
v 0.000000 0.125223 -0.596283
v -0.009491 0.263439 -0.598462
v -0.017536 0.247224 -0.576042
v -0.022912 0.222956 -0.561062
v -0.024800 0.194331 -0.555801
v -0.022912 0.165705 -0.561062
v -0.017536 0.141438 -0.576042
v -0.009491 0.125223 -0.598462
v -0.017536 0.263439 -0.604668
v -0.032403 0.247224 -0.587508
v -0.042337 0.222956 -0.576042
v -0.045825 0.194331 -0.572016
v -0.042337 0.165705 -0.576042
v -0.032403 0.141438 -0.587508
v -0.017536 0.125223 -0.604668
v -0.022912 0.263439 -0.613954
v -0.042337 0.247224 -0.604668
v -0.055316 0.222956 -0.598462
v -0.059873 0.194331 -0.596283
v -0.055316 0.165705 -0.598462
v -0.042337 0.141438 -0.604668
v -0.022912 0.125223 -0.613954
v -0.024800 0.263439 -0.624909
v -0.045825 0.247224 -0.624909
v -0.059873 0.222956 -0.624909
v -0.064806 0.194331 -0.624909
v -0.059873 0.165705 -0.624909
v -0.045825 0.141438 -0.624909
v -0.024800 0.125223 -0.624909
v -0.022912 0.263439 -0.635863
v -0.042337 0.247224 -0.645150
v -0.055316 0.222956 -0.651355
v -0.059873 0.194331 -0.653534
v -0.055316 0.165705 -0.651355
v -0.042337 0.141438 -0.645150
v -0.022912 0.125223 -0.635863
v -0.017536 0.263439 -0.645150
v -0.032403 0.247224 -0.662310
v -0.042337 0.222956 -0.673776
v -0.045825 0.194331 -0.677802
v -0.042337 0.165705 -0.673776
v -0.032403 0.141438 -0.662310
v -0.017536 0.125223 -0.645150
v -0.009491 0.263439 -0.651355
v -0.017536 0.247224 -0.673776
v -0.022912 0.222956 -0.688756
v -0.024800 0.194331 -0.694017
v -0.022912 0.165705 -0.688756
v -0.017536 0.141438 -0.673776
v -0.009491 0.125223 -0.651355
v 0.000000 0.263439 -0.653534
v 0.000000 0.247224 -0.677802
v 0.000000 0.141438 -0.677802
v -0.200531 0.802519 -0.485470
v -0.172261 0.736451 -0.485470
v -0.118721 0.736451 -0.485470
v -0.127214 0.736451 -0.450489
v -0.129202 0.802519 -0.485470
v 0.000000 0.240333 -0.505862
v -0.035068 0.194331 -0.505862
v -0.035068 0.148329 -0.505862
v 0.035068 0.148329 -0.505862
v 0.035068 0.240333 -0.505862
v -0.035068 0.240333 -0.505862
v -0.035068 0.194331 -0.563720
v -0.035068 0.222956 -0.570436
v -0.035068 0.165705 -0.570436
v -0.019063 0.148329 -0.571788
v 0.019063 0.148329 -0.571788
v 0.000000 0.240333 -0.567412
v 0.019063 0.240333 -0.571788
v -0.019063 0.240333 -0.571788
v -0.200531 0.802519 -0.485470
v -0.172261 0.736451 -0.485470
v -0.118721 0.736451 -0.485470
v -0.127214 0.736451 -0.450489
v -0.129202 0.802519 -0.485470
v 0.000000 0.240333 -0.505862
v -0.035068 0.194331 -0.505862
v 0.000000 0.148329 -0.505862
v 0.035068 0.194331 -0.505862
vn -0.0000 0.9697 0.2442
vn -0.0000 0.5146 0.8574
vn 1.0000 -0.0000 -0.0000
vn 0.9843 0.1767 -0.0000
vn 0.9906 0.1369 -0.0000
vn -1.0000 -0.0000 -0.0000
vn -0.9906 0.1369 -0.0000
vn -0.9843 0.1767 -0.0000
vn -0.0000 -0.0000 -1.0000
vn -0.5911 0.8066 -0.0000
vn 0.5911 0.8066 -0.0000
vn 0.4961 0.8683 -0.0000
vn 0.1895 0.9819 -0.0000
vn -0.1895 0.9819 -0.0000
vn -0.4961 0.8683 -0.0000
vn 0.6106 0.7920 -0.0000
vn -0.6106 0.7920 -0.0000
vn -0.0000 -0.0000 1.0000
vn 0.3015 -0.9045 0.3015
vn -0.0000 -0.9487 0.3162
vn 0.5481 -0.8364 -0.0000
vn -0.0000 -1.0000 -0.0000
vn -0.0000 1.0000 -0.0000
vn -0.8503 -0.0000 -0.5263
vn -0.2273 -0.0000 -0.9738
vn 0.2273 -0.0000 -0.9738
vn -0.0000 0.9697 -0.2442
vn -0.0000 0.8503 -0.5263
vn -0.0000 0.8936 -0.4489
vn -0.0000 0.5970 -0.8022
vn 0.8503 -0.0000 -0.5263
vn 0.8936 -0.0000 -0.4489
vn -0.0000 -0.8503 -0.5263
vn -0.0000 -0.8936 -0.4489
vn -0.0000 -0.5970 -0.8022
vn -0.8936 -0.0000 -0.4489
vn -0.0000 -0.9138 -0.4061
vn 0.1791 -0.9109 -0.3716
vn -0.0000 -0.6934 -0.7205
vn -0.0000 -0.3732 -0.9278
vn 0.3962 -0.3670 -0.8416
vn 0.3118 -0.6864 -0.6570
vn -0.0000 0.3732 -0.9278
vn 0.3962 0.3670 -0.8416
vn 0.4249 -0.0000 -0.9052
vn -0.0000 0.6934 -0.7205
vn -0.0000 0.9138 -0.4061
vn 0.1791 0.9109 -0.3716
vn 0.3118 0.6864 -0.6570
vn 0.5593 -0.6701 -0.4880
vn 0.3239 -0.9042 -0.2784
vn 0.7503 -0.0000 -0.6611
vn 0.7027 -0.3528 -0.6178
vn 0.5593 0.6701 -0.4880
vn 0.7027 0.3528 -0.6178
vn 0.3239 0.9042 -0.2784
vn 0.9395 -0.0000 -0.3425
vn 0.8838 -0.3399 -0.3216
vn 0.7108 0.6548 -0.2569
vn 0.8838 0.3399 -0.3216
vn 0.4150 0.8977 -0.1477
vn 0.4150 -0.8977 -0.1477
vn 0.7108 -0.6548 -0.2569
vn 0.4457 -0.8952 -0.0000
vn 0.9423 -0.3348 -0.0000
vn 0.7611 -0.6487 -0.0000
vn 0.9423 0.3348 -0.0000
vn 0.4457 0.8952 -0.0000
vn 0.7611 0.6487 -0.0000
vn 0.8838 0.3399 0.3216
vn 0.9395 -0.0000 0.3425
vn 0.4150 0.8977 0.1477
vn 0.7108 0.6548 0.2569
vn 0.7108 -0.6548 0.2569
vn 0.4150 -0.8977 0.1477
vn 0.8838 -0.3399 0.3216
vn 0.5593 -0.6701 0.4880
vn 0.3239 -0.9042 0.2784
vn 0.7503 -0.0000 0.6611
vn 0.7027 -0.3528 0.6178
vn 0.5593 0.6701 0.4880
vn 0.7027 0.3528 0.6178
vn 0.3239 0.9042 0.2784
vn 0.3118 0.6864 0.6570
vn 0.3962 0.3670 0.8416
vn 0.1791 0.9109 0.3716
vn 0.1791 -0.9109 0.3716
vn 0.3962 -0.3670 0.8416
vn 0.3118 -0.6864 0.6570
vn 0.4249 -0.0000 0.9052
vn -0.0000 -0.9138 0.4061
vn -0.0000 -0.3732 0.9278
vn -0.0000 -0.6934 0.7205
vn -0.0000 0.3732 0.9278
vn -0.0000 0.9138 0.4061
vn -0.0000 0.6934 0.7205
vn -0.1791 0.9109 0.3716
vn -0.3118 0.6864 0.6570
vn -0.3118 -0.6864 0.6570
vn -0.1791 -0.9109 0.3716
vn -0.4249 -0.0000 0.9052
vn -0.3962 -0.3670 0.8416
vn -0.3962 0.3670 0.8416
vn -0.5593 -0.6701 0.4880
vn -0.3239 -0.9042 0.2784
vn -0.7503 -0.0000 0.6611
vn -0.7027 -0.3528 0.6178
vn -0.5593 0.6701 0.4880
vn -0.7027 0.3528 0.6178
vn -0.3239 0.9042 0.2784
vn -0.4150 0.8977 0.1477
vn -0.4150 -0.8977 0.1477
vn -0.8838 -0.3399 0.3216
vn -0.7108 -0.6548 0.2569
vn -0.8838 0.3399 0.3216
vn -0.9395 -0.0000 0.3425
vn -0.7108 0.6548 0.2569
vn -0.9423 -0.3348 -0.0000
vn -0.7611 -0.6487 -0.0000
vn -0.9423 0.3348 -0.0000
vn -0.4457 0.8952 -0.0000
vn -0.7611 0.6487 -0.0000
vn -0.4457 -0.8952 -0.0000
vn -0.7108 -0.6548 -0.2569
vn -0.4150 -0.8977 -0.1477
vn -0.9395 -0.0000 -0.3425
vn -0.8838 -0.3399 -0.3216
vn -0.7108 0.6548 -0.2569
vn -0.8838 0.3399 -0.3216
vn -0.4150 0.8977 -0.1477
vn -0.7503 -0.0000 -0.6611
vn -0.7027 -0.3528 -0.6178
vn -0.5593 0.6701 -0.4880
vn -0.7027 0.3528 -0.6178
vn -0.3239 0.9042 -0.2784
vn -0.3239 -0.9042 -0.2784
vn -0.5593 -0.6701 -0.4880
vn -0.1791 -0.9109 -0.3716
vn -0.3962 -0.3670 -0.8416
vn -0.3118 -0.6864 -0.6570
vn -0.3962 0.3670 -0.8416
vn -0.4249 -0.0000 -0.9052
vn -0.1791 0.9109 -0.3716
vn -0.3118 0.6864 -0.6570
vt 0.466494 0.485042
vt 0.466494 0.626921
vt 0.445411 0.619896
vt 0.445411 0.492067
vt 0.518389 0.626921
vt 0.518388 0.485042
vt 0.391941 0.065711
vt 0.436437 0.065711
vt 0.436437 0.478638
vt 0.391941 0.505344
vt 0.250063 0.505344
vt 0.205567 0.478638
vt 0.205567 0.065711
vt 0.250063 0.065711
vt 0.196593 0.000132
vt 0.196593 0.372171
vt 0.102917 0.372171
vt 0.102917 0.138862
vt 0.102917 0.000132
vt 0.196593 0.999867
vt 0.102917 0.999867
vt 0.102917 0.872038
vt 0.196593 0.872038
vt 0.196593 0.500000
vt 0.102917 0.733309
vt 0.102917 0.500000
vt 0.196858 0.458194
vt 0.196858 0.086156
vt 0.445146 0.086155
vt 0.445146 0.458194
vt 0.470098 0.484777
vt 0.470098 0.251468
vt 0.501963 0.251468
vt 0.501963 0.484777
vt 0.531539 0.251468
vt 0.531539 0.484777
vt 0.563404 0.251468
vt 0.563404 0.484777
vt 0.445411 0.484777
vt 0.445411 0.251468
vt 0.588091 0.484777
vt 0.588091 0.251468
vt 0.075984 0.450873
vt 0.075984 0.421297
vt 0.087844 0.391722
vt 0.087844 0.480449
vt 0.000133 0.138862
vt 0.000133 0.000132
vt 0.102917 0.266691
vt 0.000133 0.266691
vt 0.000133 0.872038
vt 0.000133 0.733309
vt 0.000132 0.999867
vt 0.000132 0.988483
vt 0.681042 0.056303
vt 0.681042 0.195033
vt 0.667732 0.209477
vt 0.667732 0.041859
vt 0.627141 0.251203
vt 0.499312 0.251204
vt 0.486002 0.236759
vt 0.640451 0.236759
vt 0.445411 0.195033
vt 0.445411 0.056303
vt 0.458721 0.041859
vt 0.458721 0.209477
vt 0.499312 0.000132
vt 0.615756 0.000132
vt 0.612250 0.014577
vt 0.486002 0.014577
vt 0.616578 0.041859
vt 0.486002 0.041859
vt 0.646031 0.041859
vt 0.640451 0.041859
vt 0.640451 0.209477
vt 0.486002 0.209477
vt 0.306522 0.062459
vt 0.306522 0.062459
vt 0.306522 0.055283
vt 0.250063 0.021215
vt 0.303269 0.021215
vt 0.303269 0.065711
vt 0.338735 0.065711
vt 0.338735 0.021215
vt 0.391941 0.021215
vt 0.257087 0.000133
vt 0.384917 0.000132
vt 0.335482 0.024468
vt 0.321002 0.024468
vt 0.306522 0.024468
vt 0.335482 0.062459
vt 0.335482 0.043463
vt 0.321002 0.062459
vt 0.306522 0.043463
vt 0.335482 0.024468
vt 0.335482 0.031643
vt 0.328874 0.062459
vt 0.313130 0.024468
vt 0.708640 0.661362
vt 0.718635 0.701344
vt 0.698644 0.701344
vt 0.718635 0.741326
vt 0.718635 0.781307
vt 0.698644 0.781307
vt 0.698644 0.741326
vt 0.718635 0.821289
vt 0.718635 0.861271
vt 0.698644 0.861271
vt 0.698644 0.821289
vt 0.718635 0.901252
vt 0.718635 0.941234
vt 0.698644 0.941234
vt 0.698644 0.901252
vt 0.708640 0.981216
vt 0.678654 0.741326
vt 0.678654 0.701344
vt 0.678654 0.821289
vt 0.678654 0.781307
vt 0.678654 0.901252
vt 0.678654 0.861271
vt 0.688649 0.981216
vt 0.678654 0.941234
vt 0.688649 0.661362
vt 0.658663 0.821289
vt 0.658663 0.781307
vt 0.658663 0.901252
vt 0.658663 0.861271
vt 0.668658 0.981216
vt 0.658663 0.941234
vt 0.668658 0.661362
vt 0.658663 0.701344
vt 0.658663 0.741326
vt 0.648667 0.661362
vt 0.638672 0.701344
vt 0.638672 0.781307
vt 0.638672 0.741326
vt 0.638672 0.861271
vt 0.638672 0.821289
vt 0.638672 0.941234
vt 0.638672 0.901252
vt 0.648667 0.981216
vt 0.618681 0.861271
vt 0.618681 0.821289
vt 0.618681 0.941234
vt 0.618681 0.901252
vt 0.618681 0.741326
vt 0.618681 0.701344
vt 0.618681 0.781307
vt 0.628676 0.981216
vt 0.628676 0.661362
vt 0.598690 0.741326
vt 0.598690 0.701344
vt 0.598690 0.821289
vt 0.598690 0.781307
vt 0.598690 0.901252
vt 0.598690 0.861271
vt 0.608686 0.981216
vt 0.598690 0.941234
vt 0.608686 0.661362
vt 0.578699 0.901252
vt 0.578699 0.861271
vt 0.588695 0.981216
vt 0.578699 0.941234
vt 0.588695 0.661362
vt 0.578699 0.701344
vt 0.578699 0.781307
vt 0.578699 0.741326
vt 0.578699 0.821289
vt 0.568704 0.661362
vt 0.558709 0.701344
vt 0.558709 0.781307
vt 0.558709 0.741326
vt 0.558709 0.861271
vt 0.558709 0.821289
vt 0.558709 0.941234
vt 0.558709 0.901252
vt 0.568704 0.981216
vt 0.538718 0.941234
vt 0.538718 0.901252
vt 0.538718 0.741326
vt 0.538718 0.701344
vt 0.538718 0.821289
vt 0.538718 0.781307
vt 0.538718 0.861271
vt 0.548713 0.981216
vt 0.548713 0.661362
vt 0.518727 0.741326
vt 0.518727 0.701344
vt 0.518727 0.821289
vt 0.518727 0.781307
vt 0.518727 0.901252
vt 0.518727 0.861271
vt 0.528722 0.981216
vt 0.518727 0.941234
vt 0.528722 0.661362
vt 0.508731 0.981216
vt 0.498736 0.941234
vt 0.508731 0.661362
vt 0.498736 0.701344
vt 0.498736 0.781307
vt 0.498736 0.741326
vt 0.498736 0.861271
vt 0.498736 0.821289
vt 0.498736 0.901252
vt 0.478745 0.781307
vt 0.478745 0.741326
vt 0.478745 0.861271
vt 0.478745 0.821289
vt 0.478745 0.941234
vt 0.478745 0.901252
vt 0.478745 0.701344
vt 0.488741 0.981216
vt 0.488741 0.661362
vt 0.798599 0.701344
vt 0.798599 0.741326
vt 0.778608 0.741326
vt 0.778608 0.701344
vt 0.798599 0.781307
vt 0.798599 0.821289
vt 0.778608 0.821289
vt 0.778608 0.781307
vt 0.798599 0.861271
vt 0.798599 0.901252
vt 0.778608 0.901252
vt 0.778608 0.861271
vt 0.798599 0.941234
vt 0.788603 0.981216
vt 0.778608 0.941234
vt 0.788603 0.661362
vt 0.758617 0.821289
vt 0.758617 0.781307
vt 0.758617 0.901252
vt 0.758617 0.861271
vt 0.768612 0.981216
vt 0.758617 0.941234
vt 0.768612 0.661362
vt 0.758617 0.701344
vt 0.758617 0.741326
vt 0.748621 0.661362
vt 0.738626 0.701344
vt 0.738626 0.781307
vt 0.738626 0.741326
vt 0.738626 0.861271
vt 0.738626 0.821289
vt 0.738626 0.941234
vt 0.738626 0.901252
vt 0.748621 0.981216
vt 0.728631 0.981216
vt 0.728631 0.661362
vt 0.328874 0.024468
vt 0.634358 0.014577
vt 0.640451 0.014577
vt 0.321002 0.024468
vt 0.627141 0.000132
vt 0.306522 0.031643
vt 0.306522 0.043463
vt 0.313130 0.062459
vt 0.321002 0.062459
vt 0.335482 0.055283
s 1
f 7/1/1 10/2/1 18/3/1 11/4/1
f 3/5/2 10/2/2 7/1/2 1/6/2
f 5/7/3 9/8/4 10/9/5 3/10/3
f 1/11/6 7/12/7 8/13/8 2/14/6
f 16/15/6 11/16/6 12/17/6 6/18/6 13/19/6
f 16/20/9 13/21/9 14/22/9 17/23/9
f 18/24/3 17/23/3 14/22/3 4/25/3 15/26/3
f 8/13/8 7/12/7 11/27/10 16/28/10
f 10/9/5 9/8/4 17/29/11 18/30/11
f 19/31/12 24/32/12 26/33/13 21/34/13
f 21/34/13 26/33/13 25/35/14 22/36/14
f 22/36/14 25/35/14 23/37/15 20/38/15
f 19/31/12 15/39/16 4/40/16 24/32/12
f 12/41/17 20/38/15 23/37/15 6/42/17
f 21/43/18 22/44/18 20/45/18 12/17/18 11/16/18 18/24/18 15/26/18 19/46/18
f 13/19/6 6/18/6 29/47/6 30/48/6
f 6/18/18 4/49/18 28/50/19 29/47/20
f 4/25/3 14/22/3 27/51/21 28/52/19
f 14/22/9 13/21/9 30/53/9 180/54/9 27/51/9
f 30/55/22 29/56/20 33/57/22 34/58/22
f 29/59/20 28/60/19 32/61/22 33/62/22
f 28/63/19 27/64/21 31/65/22 32/66/22
f 27/67/22 180/68/22 179/69/22 31/70/22
f 31/70/9 179/69/9 181/71/9 35/72/9
f 35/72/23 181/71/23 177/73/23 38/74/23 37/75/23 36/76/23
f 32/66/3 31/65/3 35/72/3 36/76/3
f 33/62/18 32/61/18 36/76/18 37/75/18
f 34/58/6 33/57/6 37/75/6 38/74/6
f 51/77/6 39/78/24 50/79/6
f 2/14/9 8/80/9 43/81/25 46/82/25
f 45/83/22 5/7/22 3/10/22 1/11/22 2/14/22 46/82/22
f 45/83/26 44/84/26 9/85/9 5/7/9
f 43/81/27 8/80/27 16/86/27 17/87/27 9/85/27 44/84/27
f 41/88/28 182/89/29 42/90/28 43/81/30 44/84/30
f 40/91/31 204/92/32 41/88/31 44/84/26 45/83/26
f 39/78/33 203/93/34 40/91/33 45/83/35 46/82/35
f 42/90/24 183/94/36 39/78/24 46/82/25 43/81/25
f 56/95/3 41/88/31 55/96/3
f 54/91/22 40/91/33 59/97/22
f 48/90/23 42/90/28 62/98/23
f 68/99/22 67/100/37 75/101/38
f 176/102/39 66/103/40 73/104/41 74/105/42
f 65/106/9 64/107/43 71/108/44 72/109/45
f 175/110/46 174/111/47 69/112/48 70/113/49
f 67/100/37 176/102/39 74/105/42 75/101/38
f 66/103/40 65/106/9 72/109/45 73/104/41
f 64/107/43 175/110/46 70/113/49 71/108/44
f 174/111/47 63/114/23 69/112/48
f 75/101/38 74/105/42 81/115/50 82/116/51
f 73/104/41 72/109/45 79/117/52 80/118/53
f 71/108/44 70/113/49 77/119/54 78/120/55
f 69/112/48 63/121/23 76/122/56
f 68/123/22 75/101/38 82/116/51
f 74/105/42 73/104/41 80/118/53 81/115/50
f 72/109/45 71/108/44 78/120/55 79/117/52
f 70/113/49 69/112/48 76/122/56 77/119/54
f 80/118/53 79/117/52 86/124/57 87/125/58
f 78/120/55 77/119/54 84/126/59 85/127/60
f 76/122/56 63/128/23 83/129/61
f 68/130/22 82/116/51 89/131/62
f 81/115/50 80/118/53 87/125/58 88/132/63
f 79/117/52 78/120/55 85/127/60 86/124/57
f 77/119/54 76/122/56 83/129/61 84/126/59
f 82/116/51 81/115/50 88/132/63 89/131/62
f 68/133/22 89/131/62 96/134/64
f 88/132/63 87/125/58 94/135/65 95/136/66
f 86/124/57 85/127/60 92/137/67 93/138/3
f 84/126/59 83/129/61 90/139/68 91/140/69
f 89/131/62 88/132/63 95/136/66 96/134/64
f 87/125/58 86/124/57 93/138/3 94/135/65
f 85/127/60 84/126/59 91/140/69 92/137/67
f 83/129/61 63/141/23 90/139/68
f 93/138/3 92/137/67 99/142/70 100/143/71
f 91/140/69 90/139/68 97/144/72 98/145/73
f 96/134/64 95/136/66 102/146/74 103/147/75
f 94/135/65 93/138/3 100/143/71 101/148/76
f 92/137/67 91/140/69 98/145/73 99/142/70
f 90/139/68 63/149/23 97/144/72
f 68/150/22 96/134/64 103/147/75
f 95/136/66 94/135/65 101/148/76 102/146/74
f 103/147/75 102/146/74 109/151/77 110/152/78
f 101/148/76 100/143/71 107/153/79 108/154/80
f 99/142/70 98/145/73 105/155/81 106/156/82
f 97/144/72 63/157/23 104/158/83
f 68/159/22 103/147/75 110/152/78
f 102/146/74 101/148/76 108/154/80 109/151/77
f 100/143/71 99/142/70 106/156/82 107/153/79
f 98/145/73 97/144/72 104/158/83 105/155/81
f 106/156/82 105/155/81 112/160/84 113/161/85
f 104/158/83 63/162/23 111/163/86
f 68/164/22 110/152/78 117/165/87
f 109/151/77 108/154/80 115/166/88 116/167/89
f 107/153/79 106/156/82 113/161/85 114/168/90
f 105/155/81 104/158/83 111/163/86 112/160/84
f 110/152/78 109/151/77 116/167/89 117/165/87
f 108/154/80 107/153/79 114/168/90 115/166/88
f 68/169/22 117/165/87 124/170/91
f 116/167/89 115/166/88 122/171/92 123/172/93
f 114/168/90 113/161/85 120/173/94 121/174/18
f 112/160/84 111/163/86 118/175/95 119/176/96
f 117/165/87 116/167/89 123/172/93 124/170/91
f 115/166/88 114/168/90 121/174/18 122/171/92
f 113/161/85 112/160/84 119/176/96 120/173/94
f 111/163/86 63/177/23 118/175/95
f 119/176/96 118/175/95 125/178/97 126/179/98
f 124/170/91 123/172/93 130/180/99 131/181/100
f 122/171/92 121/174/18 128/182/101 129/183/102
f 120/173/94 119/176/96 126/179/98 127/184/103
f 118/175/95 63/185/23 125/178/97
f 68/186/22 124/170/91 131/181/100
f 123/172/93 122/171/92 129/183/102 130/180/99
f 121/174/18 120/173/94 127/184/103 128/182/101
f 131/181/100 130/180/99 137/187/104 138/188/105
f 129/183/102 128/182/101 135/189/106 136/190/107
f 127/184/103 126/179/98 133/191/108 134/192/109
f 125/178/97 63/193/23 132/194/110
f 68/195/22 131/181/100 138/188/105
f 130/180/99 129/183/102 136/190/107 137/187/104
f 128/182/101 127/184/103 134/192/109 135/189/106
f 126/179/98 125/178/97 132/194/110 133/191/108
f 132/194/110 63/196/23 139/197/111
f 68/198/22 138/188/105 145/199/112
f 137/187/104 136/190/107 143/200/113 144/201/114
f 135/189/106 134/192/109 141/202/115 142/203/116
f 133/191/108 132/194/110 139/197/111 140/204/117
f 138/188/105 137/187/104 144/201/114 145/199/112
f 136/190/107 135/189/106 142/203/116 143/200/113
f 134/192/109 133/191/108 140/204/117 141/202/115
f 144/201/114 143/200/113 150/205/118 151/206/119
f 142/203/116 141/202/115 148/207/120 149/208/6
f 140/204/117 139/197/111 146/209/121 147/210/122
f 145/199/112 144/201/114 151/206/119 152/211/123
f 143/200/113 142/203/116 149/208/6 150/205/118
f 141/202/115 140/204/117 147/210/122 148/207/120
f 139/197/111 63/212/23 146/209/121
f 68/213/22 145/199/112 152/211/123
f 152/214/123 151/215/119 158/216/124 159/217/125
f 150/218/118 149/219/6 156/220/126 157/221/127
f 148/222/120 147/223/122 154/224/128 155/225/129
f 146/226/121 63/227/23 153/228/130
f 68/229/22 152/214/123 159/217/125
f 151/215/119 150/218/118 157/221/127 158/216/124
f 149/219/6 148/222/120 155/225/129 156/220/126
f 147/223/122 146/226/121 153/228/130 154/224/128
f 157/221/127 156/220/126 163/230/131 164/231/132
f 155/225/129 154/224/128 161/232/133 162/233/134
f 153/228/130 63/234/23 160/235/135
f 68/236/22 159/217/125 166/237/136
f 158/216/124 157/221/127 164/231/132 165/238/137
f 156/220/126 155/225/129 162/233/134 163/230/131
f 154/224/128 153/228/130 160/235/135 161/232/133
f 159/217/125 158/216/124 165/238/137 166/237/136
f 68/239/22 166/237/136 173/240/138
f 165/238/137 164/231/132 171/241/139 172/242/140
f 163/230/131 162/233/134 169/243/141 170/244/142
f 161/232/133 160/235/135 167/245/143 168/246/144
f 166/237/136 165/238/137 172/242/140 173/240/138
f 164/231/132 163/230/131 170/244/142 171/241/139
f 162/233/134 161/232/133 168/246/144 169/243/141
f 160/235/135 63/247/23 167/245/143
f 170/244/142 169/243/141 64/107/43 65/106/9
f 168/246/144 167/245/143 174/111/47 175/110/46
f 173/240/138 172/242/140 176/102/39 67/100/37
f 171/241/139 170/244/142 65/106/9 66/103/40
f 169/243/141 168/246/144 175/110/46 64/107/43
f 167/245/143 63/248/23 174/111/47
f 68/249/22 173/240/138 67/100/37
f 172/242/140 171/241/139 66/103/40 176/102/39
f 61/250/23 41/88/28 56/95/23
f 177/73/9 178/251/9 34/252/9 38/74/9
f 62/98/23 42/90/28 182/89/29 60/253/23
f 179/69/22 180/68/22 30/254/22 34/252/22 178/251/22
f 181/71/9 179/69/9 178/251/9 177/73/9
f 60/253/23 182/89/29 41/88/28 61/250/23
f 49/255/6 42/90/24 48/90/6
f 50/79/6 39/78/24 183/94/36 47/256/6
f 47/256/6 183/94/36 42/90/24 49/255/6
f 57/257/22 39/78/33 51/77/22
f 59/97/22 40/91/33 203/93/34 58/258/22
f 58/258/22 203/93/34 39/78/33 57/257/22
f 53/259/3 40/91/31 54/91/3
f 55/96/3 41/88/31 204/92/32 52/92/3
f 52/92/3 204/92/32 40/91/31 53/259/3
l 186 194
l 197 196
l 187 195
l 199 198
l 198 200
l 193 201
l 187 189
l 184 190
l 188 202
l 191 184
l 185 192
