# Blender 5.0.1
# www.blender.org
o Hexagon_Painting
v 0.334985 0.000000 0.030000
v 0.382922 0.000000 -0.030000
v -0.200000 -0.300000 -0.030000
v -0.200000 0.300000 -0.030000
v -0.382922 0.000000 -0.030000
v -0.334985 0.000000 0.030000
v 0.200000 -0.300000 -0.030000
v 0.200000 0.300000 -0.030000
v -0.177019 -0.259071 0.030000
v -0.177019 0.259071 0.030000
v 0.177019 0.259071 0.030000
v 0.177019 -0.259071 0.030000
v -0.382922 0.000000 0.030000
v -0.200000 0.300000 0.030000
v 0.382922 0.000000 0.030000
v 0.200000 -0.300000 0.030000
v -0.200000 -0.300000 0.030000
v 0.200000 0.300000 0.030000
v -0.225644 0.000000 -0.009660
v -0.124601 0.165716 -0.009660
v 0.225644 0.000000 -0.009660
v 0.124601 -0.165716 -0.009660
v -0.124601 -0.165716 -0.009660
v 0.124601 0.165716 -0.009660
v -0.334985 0.000000 -0.009660
v -0.177019 0.259071 -0.009660
v 0.334985 0.000000 -0.009660
v 0.177019 -0.259071 -0.009660
v -0.177019 -0.259071 -0.009660
v 0.177019 0.259071 -0.009660
vn -0.8538 0.5206 -0.0000
vn 0.8538 0.5206 -0.0000
vn -0.0000 -1.0000 -0.0000
vn -0.0000 1.0000 -0.0000
vn -0.8538 -0.5206 -0.0000
vn 0.8538 -0.5206 -0.0000
vn -0.0000 -0.0000 -1.0000
vn -0.0000 -0.0000 1.0000
vt 0.066050 0.624793
vt 0.066050 0.988815
vt 0.003889 0.988815
vt 0.003889 0.624793
vt 0.444224 0.641556
vt 0.444224 0.983771
vt 0.385787 0.983771
vt 0.385787 0.641556
vt 0.601632 0.985185
vt 0.601632 0.590392
vt 0.660850 0.590392
vt 0.660850 0.985185
vt 0.592743 0.592714
vt 0.592743 0.992629
vt 0.532756 0.992629
vt 0.532756 0.592714
vt 0.823826 0.620169
vt 0.823826 0.974457
vt 0.763328 0.974457
vt 0.763328 0.620169
vt 0.155535 0.997670
vt 0.155535 0.639375
vt 0.216717 0.639375
vt 0.216717 0.997670
vt 0.769261 0.479333
vt 0.630593 0.394782
vt 0.630593 0.209891
vt 0.769261 0.125340
vt 0.907929 0.209891
vt 0.907929 0.394782
vt 0.345925 0.665861
vt 0.345925 0.961389
vt 0.307298 0.961389
vt 0.307298 0.665861
vt 0.108452 0.650647
vt 0.108452 0.965006
vt 0.258453 0.664822
vt 0.258453 0.974236
vt 0.701246 0.613074
vt 0.701246 0.962503
vt 0.491836 0.969653
vt 0.491836 0.615690
vt 0.865094 0.643341
vt 0.865094 0.949294
vt 0.503097 0.513733
vt 0.262737 0.660290
vt 0.022377 0.513733
vt 0.022377 0.152283
vt 0.262737 0.005726
vt 0.503097 0.152283
vt 0.740390 0.613074
vt 0.740390 0.962503
vt 0.149540 0.650647
vt 0.149540 0.965006
vt 0.905084 0.643341
vt 0.905084 0.949294
vt 0.452185 0.969653
vt 0.452185 0.615690
vt 0.298894 0.664822
vt 0.298894 0.974236
vt 0.768285 0.501157
vt 0.916352 0.410875
vt 0.999765 0.457710
vt 0.768285 0.598853
vt 0.768285 0.097931
vt 0.620218 0.188214
vt 0.536805 0.141378
vt 0.768285 0.000235
vt 0.620218 0.410875
vt 0.536805 0.457710
vt 0.916352 0.188214
vt 0.999765 0.141378
s 0
f 13/1/1 14/2/1 4/3/1 5/4/1
f 2/5/2 8/6/2 18/7/2 15/8/2
f 3/9/3 7/10/3 16/11/3 17/12/3
f 8/13/4 4/14/4 14/15/4 18/16/4
f 17/17/5 13/18/5 5/19/5 3/20/5
f 7/21/6 2/22/6 15/23/6 16/24/6
f 5/25/7 4/26/7 8/27/7 2/28/7 7/29/7 3/30/7
f 1/31/5 11/32/5 30/33/5 27/34/5
f 6/35/8 10/36/8 14/2/8 13/1/8
f 1/37/8 12/38/8 16/24/8 15/23/8
f 12/39/8 9/40/8 17/12/8 16/11/8
f 10/41/8 11/42/8 18/16/8 14/15/8
f 11/32/8 1/31/8 15/8/8 18/7/8
f 9/43/8 6/44/8 13/18/8 17/17/8
f 20/45/8 19/46/8 23/47/8 22/48/8 21/49/8 24/50/8
f 9/40/4 12/39/4 28/51/4 29/52/4
f 10/36/6 6/35/6 25/53/6 26/54/6
f 6/44/2 9/43/2 29/55/2 25/56/2
f 11/42/3 10/41/3 26/57/3 30/58/3
f 12/38/1 1/37/1 27/59/1 28/60/1
f 19/61/8 20/62/8 26/63/8 25/64/8
f 21/65/8 22/66/8 28/67/8 27/68/8
f 22/66/8 23/69/8 29/70/8 28/67/8
f 20/62/8 24/71/8 30/72/8 26/63/8
f 24/71/8 21/65/8 27/68/8 30/72/8
f 23/69/8 19/61/8 25/64/8 29/70/8
