# Blender 5.0.1
# www.blender.org
o Square_Painting
v -0.271545 -0.271545 0.030000
v -0.271545 0.271545 0.030000
v -0.300000 -0.300000 -0.030000
v -0.300000 0.300000 -0.030000
v 0.271545 -0.271545 0.030000
v 0.271545 0.271545 0.030000
v 0.300000 -0.300000 -0.030000
v 0.300000 0.300000 -0.030000
v -0.300000 -0.300000 0.030000
v -0.300000 0.300000 0.030000
v 0.300000 0.300000 0.030000
v 0.300000 -0.300000 0.030000
v -0.199408 -0.199408 0.013225
v -0.199408 0.199408 0.013225
v 0.199408 0.199408 0.013225
v 0.199408 -0.199408 0.013225
v -0.271545 -0.271545 0.013225
v -0.271545 0.271545 0.013225
v 0.271545 0.271545 0.013225
v 0.271545 -0.271545 0.013225
vn -1.0000 -0.0000 -0.0000
vn -0.0000 -0.0000 -1.0000
vn 1.0000 -0.0000 -0.0000
vn -0.0000 1.0000 -0.0000
vn -0.0000 -1.0000 -0.0000
vn -0.0000 -0.0000 1.0000
vt 0.682890 0.055542
vt 0.682890 0.781852
vt 0.610259 0.781852
vt 0.610259 0.055542
vt 0.400567 0.925944
vt 0.075092 0.925944
vt 0.075092 0.600469
vt 0.400567 0.600469
vt 0.993448 0.055542
vt 0.993448 0.781852
vt 0.920817 0.781852
vt 0.920817 0.055542
vt 0.502662 0.089988
vt 0.502662 0.747406
vt 0.482356 0.747406
vt 0.482356 0.089988
vt 0.609739 0.055542
vt 0.609739 0.781852
vt 0.537108 0.781852
vt 0.537108 0.055542
vt 0.865545 0.055542
vt 0.865545 0.781852
vt 0.792914 0.781852
vt 0.792914 0.055542
vt 0.717336 0.089988
vt 0.717336 0.747406
vt 0.886371 0.747406
vt 0.886371 0.089988
vt 0.758468 0.747406
vt 0.758468 0.089988
vt 0.007146 0.028849
vt 0.475088 0.028849
vt 0.475088 0.496791
vt 0.007146 0.496791
vt 0.737642 0.089988
vt 0.737642 0.747406
vt 0.738162 0.747406
vt 0.738162 0.089988
vt 0.866065 0.747406
vt 0.866065 0.089988
vt 0.063247 0.936753
vt 0.411878 0.936753
vt 0.474938 0.999812
vt 0.000188 0.999812
vt 0.411878 0.588122
vt 0.063247 0.588122
vt 0.000188 0.525063
vt 0.474938 0.525062
s 0
f 9/1/1 10/2/1 4/3/1 3/4/1
f 3/5/2 4/6/2 8/7/2 7/8/2
f 7/9/3 8/10/3 11/11/3 12/12/3
f 1/13/4 5/14/4 20/15/4 17/16/4
f 3/17/5 7/18/5 12/19/5 9/20/5
f 8/21/4 4/22/4 10/23/4 11/24/4
f 1/25/6 2/26/6 10/2/6 9/1/6
f 6/27/6 5/28/6 12/12/6 11/11/6
f 5/14/6 1/13/6 9/20/6 12/19/6
f 2/29/6 6/30/6 11/24/6 10/23/6
f 16/31/6 15/32/6 14/33/6 13/34/6
f 2/26/3 1/25/3 17/35/3 18/36/3
f 6/30/5 2/29/5 18/37/5 19/38/5
f 5/28/1 6/27/1 19/39/1 20/40/1
f 13/41/6 14/42/6 18/43/6 17/44/6
f 15/45/6 16/46/6 20/47/6 19/48/6
f 16/46/6 13/41/6 17/44/6 20/47/6
f 14/42/6 15/45/6 19/48/6 18/43/6
