# Blender 5.0.1
# www.blender.org
o Vertical
v 0.017969 -0.124547 0.009614
v 0.017969 -0.124547 -0.009614
v 0.017969 -0.148620 -0.000000
v 0.017969 0.132781 -0.009614
v 0.017969 0.132781 0.009614
v 0.017969 0.149713 -0.000000
v 0.017969 0.036691 -0.009614
v 0.017969 0.036691 0.009614
v 0.017969 0.055918 0.009614
v 0.017969 0.055918 -0.009614
v 0.037969 -0.124547 -0.009614
v 0.037969 0.036691 -0.009614
v 0.037969 0.036691 0.009614
v 0.037969 -0.124547 0.009614
v 0.037969 0.132781 0.009614
v 0.037969 0.055918 0.009614
v 0.037969 0.055918 -0.009614
v 0.037969 -0.148620 -0.000000
v 0.037969 0.132781 -0.009614
v 0.037969 0.149713 -0.000000
vn -0.0000 -0.3709 -0.9287
vn 1.0000 -0.0000 -0.0000
vn -0.0000 -0.0000 1.0000
vn -1.0000 -0.0000 -0.0000
vn -0.0000 -0.0000 -1.0000
vn -0.0000 0.4937 -0.8696
vn -0.0000 0.4937 0.8696
vn -0.0000 -0.3709 0.9287
vt 0.406587 0.625000
vt 0.420583 0.620588
vt 0.420583 0.629412
vt 0.513857 0.620588
vt 0.526309 0.620588
vt 0.581402 0.620588
vt 0.593378 0.625000
vt 0.581402 0.629412
vt 0.526309 0.629412
vt 0.513857 0.629412
s 0
f 3/1/1 2/2/1 11/2/1 18/1/1
f 14/3/2 18/1/2 11/2/2 12/4/2 17/5/2 19/6/2 20/7/2 15/8/2 16/9/2 13/10/2
f 8/10/3 1/3/3 14/3/3 13/10/3
f 1/3/4 8/10/4 9/9/4 5/8/4 6/7/4 4/6/4 10/5/4 7/4/4 2/2/4 3/1/4
f 10/5/5 4/6/5 19/6/5 17/5/5
f 9/9/3 8/10/3 13/10/3 16/9/3
f 5/8/3 9/9/3 16/9/3 15/8/3
f 4/6/6 6/7/6 20/7/6 19/6/6
f 7/4/5 10/5/5 17/5/5 12/4/5
f 6/7/7 5/8/7 15/8/7 20/7/7
f 2/2/5 7/4/5 12/4/5 11/2/5
f 1/3/8 3/1/8 18/1/8 14/3/8
