# Blender 5.0.1
# www.blender.org
o Horizontal
v 0.017969 0.036691 -0.116820
v 0.017969 0.055918 -0.110583
v 0.017969 0.047107 -0.132792
v 0.017969 0.055918 0.110583
v 0.017969 0.036691 0.116820
v 0.017969 0.047107 0.132792
v 0.017969 0.036691 -0.009614
v 0.017969 0.036691 0.009614
v 0.017969 0.055918 0.009614
v 0.017969 0.055918 -0.009614
v 0.037962 0.055918 0.009614
v 0.037962 0.055918 0.110583
v 0.037962 0.036691 0.116820
v 0.037962 0.036691 0.009614
v 0.037962 0.055918 -0.009614
v 0.037962 0.036691 -0.009614
v 0.037962 0.036691 -0.116820
v 0.037962 0.055918 -0.110583
v 0.037962 0.047107 0.132792
v 0.037962 0.047107 -0.132792
vn -0.0000 0.9295 0.3688
vn -0.0000 1.0000 -0.0000
vn 1.0000 -0.0000 -0.0000
vn -1.0000 -0.0000 -0.0000
vn -0.0000 0.9295 -0.3688
vn -0.0000 -1.0000 -0.0000
vn -0.0000 -0.8376 -0.5463
vn -0.0000 -0.8376 0.5463
vt 0.525977 0.675752
vt 0.520177 0.686774
vt 0.526309 0.620588
vt 0.526309 0.629412
vt 0.513857 0.678614
vt 0.513857 0.629412
vt 0.513857 0.620588
vt 0.513525 0.571386
vt 0.520177 0.563226
vt 0.526309 0.574248
s 0
f 4/1/1 6/2/1 19/2/1 12/1/1
f 10/3/2 9/4/2 11/4/2 15/3/2
f 11/4/3 12/1/3 19/2/3 13/5/3 14/6/3 16/7/3 17/8/3 20/9/3 18/10/3 15/3/3
f 9/4/4 10/3/4 2/10/4 3/9/4 1/8/4 7/7/4 8/6/4 5/5/4 6/2/4 4/1/4
f 3/9/5 2/10/5 18/10/5 20/9/5
f 7/7/6 1/8/6 17/8/6 16/7/6
f 8/6/6 7/7/6 16/7/6 14/6/6
f 1/8/7 3/9/7 20/9/7 17/8/7
f 9/4/2 4/1/2 12/1/2 11/4/2
f 2/10/2 10/3/2 15/3/2 18/10/2
f 6/2/8 5/5/8 13/5/8 19/2/8
f 5/5/6 8/6/6 14/6/6 13/5/6
