# Blender 5.0.1
# www.blender.org
o Lower_Left
v 0.017969 0.036691 0.116820
v 0.017969 0.047107 0.132792
v 0.017969 -0.124547 0.009614
v 0.017969 -0.148620 -0.000000
v 0.017969 0.048475 0.149107
v 0.017969 -0.175677 -0.000000
v 0.037969 -0.148620 -0.000000
v 0.037969 -0.175677 -0.000000
v 0.037969 0.048475 0.149107
v 0.037969 0.047107 0.132792
v 0.037969 0.036691 0.116820
v 0.037969 -0.124547 0.009614
vn -1.0000 -0.0000 -0.0000
vn 1.0000 -0.0000 -0.0000
vn -0.0000 0.8376 -0.5463
vn -0.0000 -0.5539 0.8326
vn -0.0000 0.9965 -0.0835
vn -0.0000 0.3709 -0.9287
vn -0.0000 0.5537 -0.8327
vn -0.0000 -0.0000 -1.0000
vt 0.406587 0.625000
vt 0.390737 0.625000
vt 0.521469 0.695674
vt 0.520177 0.686774
vt 0.513857 0.678614
vt 0.420583 0.629412
s 0
f 4/1/1 6/2/1 5/3/1 2/4/1 1/5/1 3/6/1
f 7/1/2 12/6/2 11/5/2 10/4/2 9/3/2 8/2/2
f 1/5/3 2/4/3 10/4/3 11/5/3
f 5/3/4 6/2/4 8/2/4 9/3/4
f 2/4/5 5/3/5 9/3/5 10/4/5
f 4/1/6 3/6/6 12/6/6 7/1/6
f 3/6/7 1/5/7 11/5/7 12/6/7
f 6/2/8 4/1/8 7/1/8 8/2/8
