# Blender 5.0.1
# www.blender.org
o Rect_Portrait_Painting
v -0.271545 -0.371545 0.030000
v -0.271545 0.371545 0.030000
v -0.300000 -0.400000 -0.030000
v -0.300000 0.400000 -0.030000
v 0.271545 -0.371545 0.030000
v 0.271545 0.371545 0.030000
v 0.300000 -0.400000 -0.030000
v 0.300000 0.400000 -0.030000
v -0.300000 -0.400000 0.030000
v -0.300000 0.400000 0.030000
v 0.300000 0.400000 0.030000
v 0.300000 -0.400000 0.030000
v -0.143211 -0.215029 0.013225
v -0.143211 0.215029 0.013225
v 0.143211 0.215029 0.013225
v 0.143211 -0.215029 0.013225
v -0.271545 -0.371545 0.013225
v -0.271545 0.371545 0.013225
v 0.271545 0.371545 0.013225
v 0.271545 -0.371545 0.013225
vn -1.0000 -0.0000 -0.0000
vn -0.0000 -0.0000 -1.0000
vn 1.0000 -0.0000 -0.0000
vn -0.0000 1.0000 -0.0000
vn -0.0000 -1.0000 -0.0000
vn -0.0000 -0.0000 1.0000
vt 0.593769 0.049725
vt 0.003571 0.049725
vt 0.003571 0.005460
vt 0.593769 0.005460
vt 0.902323 0.138055
vt 0.902323 0.408205
vt 0.699710 0.408205
vt 0.699710 0.138055
vt 0.595473 0.166760
vt 0.005276 0.166760
vt 0.005276 0.122495
vt 0.595473 0.122495
vt 0.975935 0.770904
vt 0.575272 0.770904
vt 0.575272 0.758529
vt 0.975935 0.758529
vt 0.996928 0.836162
vt 0.554280 0.836162
vt 0.554280 0.791897
vt 0.996928 0.791897
vt 0.996928 0.758173
vt 0.554280 0.758173
vt 0.554280 0.713908
vt 0.996928 0.713908
vt 0.572776 0.070718
vt 0.024564 0.070718
vt 0.026269 0.101502
vt 0.574481 0.101502
vt 0.575273 0.692915
vt 0.975935 0.692915
vt 0.547016 0.175542
vt 0.547016 0.991791
vt 0.003389 0.991791
vt 0.003389 0.175542
vt 0.572776 0.083093
vt 0.024564 0.083093
vt 0.575273 0.680540
vt 0.975935 0.680540
vt 0.026269 0.089127
vt 0.574481 0.089127
vt 0.693838 0.115647
vt 0.693838 0.432920
vt 0.599160 0.548390
vt 0.599160 0.000178
vt 0.905144 0.432920
vt 0.905144 0.115647
vt 0.999822 0.000178
vt 0.999822 0.548390
s 0
f 9/1/1 10/2/1 4/3/1 3/4/1
f 3/5/2 4/6/2 8/7/2 7/8/2
f 7/9/3 8/10/3 11/11/3 12/12/3
f 1/13/4 5/14/4 20/15/4 17/16/4
f 3/17/5 7/18/5 12/19/5 9/20/5
f 8/21/4 4/22/4 10/23/4 11/24/4
f 1/25/6 2/26/6 10/2/6 9/1/6
f 6/27/6 5/28/6 12/12/6 11/11/6
f 5/14/6 1/13/6 9/20/6 12/19/6
f 2/29/6 6/30/6 11/24/6 10/23/6
f 16/31/6 15/32/6 14/33/6 13/34/6
f 2/26/3 1/25/3 17/35/3 18/36/3
f 6/30/5 2/29/5 18/37/5 19/38/5
f 5/28/1 6/27/1 19/39/1 20/40/1
f 13/41/6 14/42/6 18/43/6 17/44/6
f 15/45/6 16/46/6 20/47/6 19/48/6
f 16/46/6 13/41/6 17/44/6 20/47/6
f 14/42/6 15/45/6 19/48/6 18/43/6
