# Blender 5.0.1
# www.blender.org
o Upper_Left
v 0.017969 0.055918 0.110583
v 0.017969 0.047107 0.132792
v 0.017969 0.132781 0.009614
v 0.017969 0.149713 -0.000000
v 0.017969 0.048475 0.149107
v 0.017969 0.162082 0.000000
v 0.037969 0.149713 -0.000000
v 0.037969 0.162082 0.000000
v 0.037969 0.048475 0.149107
v 0.037969 0.047107 0.132792
v 0.037969 0.132781 0.009614
v 0.037969 0.055918 0.110583
vn -1.0000 -0.0000 -0.0000
vn 1.0000 -0.0000 -0.0000
vn -0.0000 -0.4937 -0.8696
vn -0.0000 0.7954 0.6061
vn -0.0000 -0.9965 0.0835
vn -0.0000 -0.9295 -0.3688
vn -0.0000 -0.7957 -0.6057
vn -0.0000 -0.0000 -1.0000
vt 0.520177 0.686774
vt 0.521469 0.695674
vt 0.602037 0.625000
vt 0.593378 0.625000
vt 0.581402 0.629412
vt 0.525977 0.675752
s 0
f 2/1/1 5/2/1 6/3/1 4/4/1 3/5/1 1/6/1
f 10/1/2 12/6/2 11/5/2 7/4/2 8/3/2 9/2/2
f 3/5/3 4/4/3 7/4/3 11/5/3
f 6/3/4 5/2/4 9/2/4 8/3/4
f 5/2/5 2/1/5 10/1/5 9/2/5
f 2/1/6 1/6/6 12/6/6 10/1/6
f 1/6/7 3/5/7 11/5/7 12/6/7
f 4/4/8 6/3/8 8/3/8 7/4/8
