# Blender 5.0.1
# www.blender.org
o Rhombus_Painting
v -0.400000 -0.300000 -0.030000
v -0.200000 0.300000 -0.030000
v 0.200000 -0.300000 -0.030000
v 0.400000 0.300000 -0.030000
v -0.346589 -0.261504 0.030000
v -0.172253 0.261504 0.030000
v 0.346589 0.261504 0.030000
v 0.172253 -0.261504 0.030000
v -0.400000 -0.300000 0.030000
v -0.200000 0.300000 0.030000
v 0.400000 0.300000 0.030000
v 0.200000 -0.300000 0.030000
v -0.182895 -0.143520 -0.009321
v -0.087215 0.143520 -0.009321
v 0.182895 0.143520 -0.009321
v 0.087215 -0.143520 -0.009321
v -0.346589 -0.261504 -0.009321
v -0.172253 0.261504 -0.009321
v 0.346589 0.261504 -0.009321
v 0.172253 -0.261504 -0.009321
vn -0.9487 0.3162 -0.0000
vn -0.0000 -0.0000 -1.0000
vn 0.9487 -0.3162 -0.0000
vn -0.0000 -1.0000 -0.0000
vn -0.0000 1.0000 -0.0000
vn -0.0000 -0.0000 1.0000
vt 0.931953 0.014834
vt 0.931953 0.495296
vt 0.886372 0.495296
vt 0.886372 0.014834
vt 0.063223 0.006061
vt 0.063223 0.318229
vt 0.344174 0.411880
vt 0.344174 0.099711
vt 0.991069 0.495667
vt 0.991069 0.976130
vt 0.945488 0.976130
vt 0.945488 0.495667
vt 0.880042 0.508852
vt 0.880042 0.964658
vt 0.834461 0.964658
vt 0.834461 0.508852
vt 0.773793 0.492002
vt 0.773793 0.036195
vt 0.819374 0.036195
vt 0.819374 0.492002
vt 0.805217 0.549427
vt 0.805217 0.943580
vt 0.775345 0.943580
vt 0.775345 0.549427
vt 0.961198 0.055409
vt 0.961198 0.474218
vt 0.916243 0.935555
vt 0.916243 0.516746
vt 0.848619 0.057274
vt 0.848619 0.451427
vt 0.014456 0.321492
vt 0.460518 0.470180
vt 0.460518 0.996867
vt 0.014456 0.848180
vt 0.991069 0.055409
vt 0.991069 0.474218
vt 0.878490 0.057274
vt 0.878490 0.451427
vt 0.886372 0.935555
vt 0.886372 0.516746
vt 0.473258 0.140424
vt 0.473258 0.370276
vt 0.383628 0.434878
vt 0.383628 0.016069
vt 0.667925 0.435165
vt 0.667925 0.205313
vt 0.757555 0.140711
vt 0.757555 0.559520
s 0
f 9/1/1 10/2/1 2/3/1 1/4/1
f 1/5/2 2/6/2 4/7/2 3/8/2
f 3/9/3 4/10/3 11/11/3 12/12/3
f 1/13/4 3/14/4 12/15/4 9/16/4
f 4/17/5 2/18/5 10/19/5 11/20/5
f 5/21/5 8/22/5 20/23/5 17/24/5
f 5/25/6 6/26/6 10/2/6 9/1/6
f 7/27/6 8/28/6 12/12/6 11/11/6
f 8/22/6 5/21/6 9/16/6 12/15/6
f 6/29/6 7/30/6 11/20/6 10/19/6
f 13/31/6 16/32/6 15/33/6 14/34/6
f 6/26/3 5/25/3 17/35/3 18/36/3
f 7/30/4 6/29/4 18/37/4 19/38/4
f 8/28/1 7/27/1 19/39/1 20/40/1
f 13/41/6 14/42/6 18/43/6 17/44/6
f 15/45/6 16/46/6 20/47/6 19/48/6
f 16/46/6 13/41/6 17/44/6 20/47/6
f 14/42/6 15/45/6 19/48/6 18/43/6
