# Blender 5.0.1
# www.blender.org
o Block
v 0.017969 0.055918 -0.009614
v 0.040000 0.162082 0.000000
v 0.017969 0.162082 0.000000
v 0.040000 -0.175677 0.000000
v 0.017969 0.048475 -0.149107
v 0.017969 -0.175677 -0.000000
v 0.040000 0.048475 0.149107
v 0.017969 0.048475 0.149107
v 0.040000 0.048475 -0.149107
v 0.040000 0.055918 0.009614
v 0.040000 0.036691 0.009614
v 0.040000 0.036691 -0.009614
v 0.040000 0.055918 -0.009614
v 0.040000 0.132781 0.009614
v 0.040000 0.132781 -0.009614
v 0.040000 -0.124547 -0.009614
v 0.040000 -0.124547 0.009614
v 0.040000 0.036691 0.116820
v 0.040000 0.055918 0.110583
v 0.040000 0.055918 -0.110583
v 0.040000 0.036691 -0.116820
v 0.017969 0.055918 0.009614
v 0.017969 0.036691 0.009614
v 0.017969 0.036691 -0.009614
v 0.017969 0.149713 -0.000000
v 0.017969 0.132781 0.009614
v 0.017969 0.132781 -0.009614
v 0.017969 -0.148620 -0.000000
v 0.017969 -0.124547 -0.009614
v 0.017969 -0.124547 0.009614
v 0.017969 0.047107 0.132792
v 0.017969 0.036691 0.116820
v 0.017969 0.055918 0.110583
v 0.017969 0.047107 -0.132792
v 0.017969 0.055918 -0.110583
v 0.017969 0.036691 -0.116820
v -0.028197 -0.200000 0.188197
v -0.028197 -0.188197 0.200000
v -0.040000 -0.188197 0.188197
v -0.028197 0.188197 0.200000
v -0.028197 0.200000 0.188197
v -0.040000 0.188197 0.188197
v -0.028197 -0.200000 -0.188197
v -0.040000 -0.188197 -0.188197
v -0.028197 -0.188197 -0.200000
v -0.028197 0.200000 -0.188197
v -0.028197 0.188197 -0.200000
v -0.040000 0.188197 -0.188197
v 0.028197 -0.200000 0.188197
v 0.040000 -0.188197 0.188197
v 0.028197 -0.188197 0.200000
v 0.028197 0.200000 0.188197
v 0.028197 0.188197 0.200000
v 0.040000 0.188197 0.188197
v 0.028197 -0.188197 -0.200000
v 0.040000 -0.188197 -0.188197
v 0.028197 -0.200000 -0.188197
v 0.028197 0.200000 -0.188197
v 0.040000 0.188197 -0.188197
v 0.028197 0.188197 -0.200000
v 0.028197 -0.200000 0.000000
v 0.040000 -0.188197 0.000000
v 0.028197 0.200000 0.000000
v 0.040000 0.188197 0.000000
v 0.040000 0.035106 -0.188197
v 0.028197 0.031069 -0.200000
v 0.028197 0.031069 0.200000
v 0.040000 0.035106 0.188197
vn 1.0000 -0.0000 -0.0000
vn -0.0000 -0.0000 1.0000
vn -0.0000 -0.0000 -1.0000
vn -0.0000 -0.7954 0.6061
vn -0.0000 -1.0000 -0.0000
vn -0.0000 1.0000 -0.0000
vn -0.0000 -0.7954 -0.6061
vn -0.0000 -0.5537 -0.8327
vn -0.0000 0.5539 -0.8326
vn -0.0000 -0.5537 0.8327
vn -0.0000 0.5539 0.8326
vn -0.0000 0.7957 -0.6057
vn -0.0000 0.7957 0.6057
vn -0.5774 -0.5774 0.5773
vn -0.5774 0.5774 0.5773
vn -0.5774 -0.5774 -0.5773
vn -0.5774 0.5774 -0.5773
vn 0.5774 -0.5774 0.5774
vn 0.5774 0.5774 0.5774
vn 0.5774 -0.5774 -0.5774
vn 0.5774 0.5774 -0.5774
vn -0.7071 -0.7071 -0.0000
vn -0.7071 -0.0000 0.7071
vn -0.7071 0.7071 -0.0000
vn -0.7071 -0.0000 -0.7071
vn -0.0000 -0.7071 -0.7071
vn -0.0000 0.7071 -0.7071
vn -0.0000 -0.7071 0.7071
vn -0.0000 0.7071 0.7071
vn 0.7071 -0.7071 -0.0000
vn 0.7071 -0.0000 0.7071
vn 0.7071 -0.0000 -0.7071
vn 0.7071 0.7071 -0.0000
vn -1.0000 -0.0000 -0.0000
vt 0.526309 0.620588
vt 0.513857 0.620588
vt 0.513525 0.571386
vt 0.520177 0.563226
vt 0.526309 0.574248
vt 0.526309 0.629412
vt 0.513857 0.629412
vt 0.420583 0.620588
vt 0.581402 0.629412
vt 0.521469 0.554326
vt 0.602037 0.625000
vt 0.525977 0.675752
vt 0.513857 0.678614
vt 0.521469 0.695674
vt 0.420583 0.629412
vt 0.406587 0.625000
vt 0.390737 0.625000
vt 0.520177 0.686774
vt 0.593378 0.625000
vt 0.581402 0.620588
vt 0.161885 0.742623
vt 0.161885 0.750000
vt 0.125000 0.742623
vt 0.617623 0.963115
vt 0.625000 0.963115
vt 0.617623 1.000000
vt 0.161885 0.507377
vt 0.125000 0.507377
vt 0.161885 0.500000
vt 0.625000 0.272131
vt 0.617623 0.286885
vt 0.617623 0.244467
vt 0.338115 0.742623
vt 0.380455 0.742410
vt 0.360246 0.768443
vt 0.643443 0.764754
vt 0.617623 0.786885
vt 0.617504 0.744145
vt 0.371311 0.472336
vt 0.382300 0.505746
vt 0.347336 0.496312
vt 0.652664 0.496311
vt 0.619348 0.507699
vt 0.628688 0.472336
vt 0.382377 0.000000
vt 0.617623 0.000000
vt 0.617623 0.007377
vt 0.382377 0.007377
vt 0.625000 0.007377
vt 0.382377 0.286885
vt 0.382377 0.242623
vt 0.338115 0.625000
vt 0.382637 0.625000
vt 0.519418 0.786885
vt 0.519894 0.737401
vt 0.519894 0.512599
vt 0.519418 0.463115
vt 0.661885 0.625000
vt 0.617852 0.625000
vt 0.382377 0.963115
vt 0.838115 0.507377
vt 0.838115 0.742623
s 0
f 1/1/1 24/2/1 36/3/1 34/4/1 35/5/1
f 22/6/1 23/7/1 24/2/1 1/1/1
f 16/8/2 12/2/2 24/2/2 29/8/2
f 14/9/3 10/6/3 22/6/3 26/9/3
f 9/10/4 2/11/4 3/11/4 5/10/4
f 10/6/5 19/12/5 33/12/5 22/6/5
f 18/13/6 11/7/6 23/7/6 32/13/6
f 2/11/7 7/14/7 8/14/7 3/11/7
f 11/7/3 17/15/3 30/15/3 23/7/3
f 21/3/8 16/8/8 29/8/8 36/3/8
f 34/4/1 36/3/1 29/8/1 28/16/1 6/17/1 5/10/1
f 7/14/9 4/17/9 6/17/9 8/14/9
f 23/7/1 22/6/1 33/12/1 31/18/1 32/13/1
f 31/18/1 33/12/1 26/9/1 25/19/1 3/11/1 8/14/1
f 20/5/5 13/1/5 1/1/5 35/5/5
f 27/20/1 25/19/1 26/9/1 22/6/1 1/1/1
f 25/19/1 27/20/1 35/5/1 34/4/1 5/10/1 3/11/1
f 28/16/1 30/15/1 32/13/1 31/18/1 8/14/1 6/17/1
f 30/15/1 28/16/1 29/8/1 24/2/1 23/7/1
f 10/6/1 14/9/1 19/12/1
f 15/20/1 13/1/1 20/5/1
f 18/13/1 17/15/1 11/7/1
f 16/8/1 21/3/1 12/2/1
f 17/15/10 18/13/10 32/13/10 30/15/10
f 12/2/6 21/3/6 36/3/6 24/2/6
f 4/17/11 9/10/11 5/10/11 6/17/11
f 15/20/12 20/5/12 35/5/12 27/20/12
f 19/12/13 14/9/13 26/9/13 33/12/13
f 13/1/2 15/20/2 27/20/2 1/1/2
f 37/21/14 38/22/14 39/23/14
f 40/24/15 41/25/15 42/26/15
f 43/27/16 44/28/16 45/29/16
f 46/30/17 47/31/17 48/32/17
f 49/33/18 50/34/18 51/35/18
f 52/36/19 53/37/19 54/38/19
f 55/39/20 56/40/20 57/41/20
f 58/42/21 59/43/21 60/44/21
f 43/27/22 37/21/22 39/23/22 44/28/22
f 38/45/23 40/46/23 42/47/23 39/48/23
f 41/49/24 46/30/24 48/32/24 42/47/24
f 47/31/25 45/50/25 44/51/25 48/32/25
f 57/41/26 43/27/26 45/29/26 55/39/26
f 46/30/27 58/42/27 60/44/27 47/31/27
f 37/21/28 49/33/28 51/35/28 38/22/28
f 52/36/29 41/25/29 40/24/29 53/37/29
f 61/52/30 57/41/30 56/40/30 62/53/30
f 53/37/31 67/54/31 68/55/31 54/38/31
f 59/43/32 65/56/32 66/57/32 60/44/32
f 63/58/33 52/36/33 54/38/33 64/59/33
f 67/54/31 51/35/31 50/34/31 68/55/31
f 65/56/32 56/40/32 55/39/32 66/57/32
f 58/42/33 63/58/33 64/59/33 59/43/33
f 49/33/30 61/52/30 62/53/30 50/34/30
f 43/27/5 57/41/5 61/52/5 49/33/5 37/21/5
f 39/48/34 42/47/34 48/32/34 44/51/34
f 51/35/2 67/54/2 53/37/2 40/24/2 38/60/2
f 58/42/6 46/61/6 41/62/6 52/36/6 63/58/6
f 45/50/3 47/31/3 60/44/3 66/57/3 55/39/3
f 50/34/1 62/53/1 4/17/1 7/14/1 68/55/1
f 54/38/1 68/55/1 7/14/1 2/11/1 64/59/1
f 56/40/1 65/56/1 9/10/1 4/17/1 62/53/1
f 59/43/1 64/59/1 2/11/1 9/10/1 65/56/1
