# Blender 5.0.1
# www.blender.org
o Trianglish_Painting
v -0.300000 -0.300000 -0.030000
v -0.037050 0.300000 -0.030000
v 0.300000 -0.300000 -0.030000
v 0.037050 0.300000 -0.030000
v -0.261241 -0.274668 0.019449
v -0.020494 0.274668 0.019449
v 0.020494 0.274668 0.019449
v 0.261241 -0.274668 0.019449
v -0.300000 -0.300000 0.030000
v -0.037050 0.300000 0.030000
v 0.037050 0.300000 0.030000
v 0.300000 -0.300000 0.030000
v -0.129286 -0.188427 -0.008845
v 0.000000 0.114682 -0.008845
v 0.000000 0.114682 -0.008845
v 0.129286 -0.188427 -0.008845
v -0.261241 -0.274668 -0.008845
v -0.020494 0.274668 -0.008845
v 0.020494 0.274668 -0.008845
v 0.261241 -0.274668 -0.008845
vn -0.9159 0.4014 -0.0000
vn -0.0000 -0.0000 -1.0000
vn 0.9159 0.4014 -0.0000
vn -0.0000 -1.0000 -0.0000
vn -0.0000 1.0000 -0.0000
vn 0.3522 -0.1543 0.9231
vn -0.3522 -0.1543 0.9231
vn -0.0000 0.3845 0.9231
vn -0.0000 -0.3845 0.9231
vn -0.0000 -0.0000 1.0000
vn -0.9159 -0.4014 -0.0000
vn 0.9159 -0.4014 -0.0000
vt 0.052345 0.000178
vt 0.052345 0.569753
vt 0.000178 0.569753
vt 0.000178 0.000178
vt 0.009402 0.989985
vt 0.115082 0.748844
vt 0.144863 0.748844
vt 0.250543 0.989985
vt 0.210576 0.045099
vt 0.210576 0.614674
vt 0.158408 0.614674
vt 0.158408 0.045100
vt 0.322848 0.322443
vt 0.322848 0.844120
vt 0.270680 0.844120
vt 0.270680 0.322443
vt 0.071441 0.690266
vt 0.007014 0.690266
vt 0.007014 0.638098
vt 0.071441 0.638098
vt 0.057046 0.614239
vt 0.021408 0.614239
vt 0.021408 0.589639
vt 0.057046 0.589639
vt 0.076204 0.033877
vt 0.076204 0.555358
vt 0.134549 0.600280
vt 0.134549 0.078799
vt 0.246821 0.810420
vt 0.246821 0.356143
vt 0.576816 0.890845
vt 0.198631 0.001733
vt 0.956342 0.001733
vt 0.577486 0.889954
vt 0.109949 0.600280
vt 0.109949 0.078799
vt 0.222221 0.810420
vt 0.222221 0.356143
vt 0.100805 0.033877
vt 0.100805 0.555358
vt 0.882982 0.912419
vt 0.771091 0.650049
vt 0.788752 0.511548
vt 0.997214 0.987067
vt 0.770928 0.649997
vt 0.659144 0.912402
vt 0.544925 0.987067
vt 0.753227 0.511527
s 0
f 9/1/1 10/2/1 2/3/1 1/4/1
f 1/5/2 2/6/2 4/7/2 3/8/2
f 3/9/3 4/10/3 11/11/3 12/12/3
f 1/13/4 3/14/4 12/15/4 9/16/4
f 4/17/5 2/18/5 10/19/5 11/20/5
f 7/21/4 6/22/4 18/23/4 19/24/4
f 5/25/6 6/26/6 10/2/6 9/1/6
f 7/27/7 8/28/7 12/12/7 11/11/7
f 8/29/8 5/30/8 9/16/8 12/15/8
f 6/22/9 7/21/9 11/20/9 10/19/9
f 14/31/10 13/32/10 16/33/10 15/34/10
f 8/28/11 7/27/11 19/35/11 20/36/11
f 5/30/5 8/29/5 20/37/5 17/38/5
f 6/26/12 5/25/12 17/39/12 18/40/12
f 13/41/10 14/42/10 18/43/10 17/44/10
f 15/45/10 16/46/10 20/47/10 19/48/10
f 16/46/10 13/41/10 17/44/10 20/47/10
f 18/43/10 14/42/10 15/45/10 19/48/10
